<!--
 Remix Icon v2.5.0
 https://remixicon.com
 https://github.com/Remix-Design/RemixIcon

 Copyright RemixIcon.com
 Released under the Apache License Version 2.0

 Date: 2020-05-23
-->
<svg xmlns="http://www.w3.org/2000/svg" xlink="http://www.w3.org/1999/xlink" width="0" height="0" style="display:none;">
    <symbol viewBox="0 0 24 24" id="ri-dashboard-line">
        <g>
            <path fill="none" d="M0 0h24v24H0z"/>
            <path d="M13 21V11h8v10h-8zM3 13V3h8v10H3zm6-2V5H5v6h4zM3 21v-6h8v6H3zm2-2h4v-2H5v2zm10 0h4v-6h-4v6zM13 3h8v6h-8V3zm2 2v2h4V5h-4z"/>
        </g>
    </symbol>
    <symbol viewBox="0 0 24 24" id="ri-store-2-line">
        <g>
            <path fill="none" d="M0 0h24v24H0z"/>
            <path d="M21 13.242V20h1v2H2v-2h1v-6.758A4.496 4.496 0 0 1 1 9.5c0-.827.224-1.624.633-2.303L4.345 2.5a1 1 0 0 1 .866-.5H18.79a1 1 0 0 1 .866.5l2.702 4.682A4.496 4.496 0 0 1 21 13.242zm-2 .73a4.496 4.496 0 0 1-3.75-1.36A4.496 4.496 0 0 1 12 14.001a4.496 4.496 0 0 1-3.25-1.387A4.496 4.496 0 0 1 5 13.973V20h14v-6.027zM5.789 4L3.356 8.213a2.5 2.5 0 0 0 4.466 2.216c.335-.837 1.52-.837 1.856 0a2.5 2.5 0 0 0 4.644 0c.335-.837 1.52-.837 1.856 0a2.5 2.5 0 1 0 4.457-2.232L18.21 4H5.79z"/>
        </g>
    </symbol>
    <symbol viewBox="0 0 24 24" id="ri-paint-brush-line">
        <g>
            <path fill="none" d="M0 0h24v24H0z"/>
            <path d="M5 5v3h14V5H5zM4 3h16a1 1 0 0 1 1 1v5a1 1 0 0 1-1 1H4a1 1 0 0 1-1-1V4a1 1 0 0 1 1-1zm2 9h6a1 1 0 0 1 1 1v3h1v6h-4v-6h1v-2H5a1 1 0 0 1-1-1v-2h2v1zm11.732 1.732l1.768-1.768 1.768 1.768a2.5 2.5 0 1 1-3.536 0z"/>
        </g>
    </symbol>
    <symbol viewBox="0 0 24 24" id="ri-indeterminate-circle-fill">
        <g>
            <path fill="none" d="M0 0h24v24H0z"/>
            <path d="M12 22C6.477 22 2 17.523 2 12S6.477 2 12 2s10 4.477 10 10-4.477 10-10 10zM7 11v2h10v-2H7z"/>
        </g>
    </symbol>
    <symbol viewBox="0 0 24 24" id="ri-star-line">
        <g>
            <path fill="none" d="M0 0h24v24H0z"/>
            <path d="M12 18.26l-7.053 3.948 1.575-7.928L.587 8.792l8.027-.952L12 .5l3.386 7.34 8.027.952-5.935 5.488 1.575 7.928L12 18.26zm0-2.292l4.247 2.377-.949-4.773 3.573-3.305-4.833-.573L12 5.275l-2.038 4.42-4.833.572 3.573 3.305-.949 4.773L12 15.968z"/>
        </g>
    </symbol>
    <symbol viewBox="0 0 24 24" id="ri-star-fill">
        <g>
            <path fill="none" d="M0 0h24v24H0z"/>
            <path d="M12 18.26l-7.053 3.948 1.575-7.928L.587 8.792l8.027-.952L12 .5l3.386 7.34 8.027.952-5.935 5.488 1.575 7.928z"/>
        </g>
    </symbol>
    <symbol viewBox="0 0 24 24" id="ri-more-2-fill">
        <g>
            <path fill="none" d="M0 0h24v24H0z"/>
            <path d="M12 3c-1.1 0-2 .9-2 2s.9 2 2 2 2-.9 2-2-.9-2-2-2zm0 14c-1.1 0-2 .9-2 2s.9 2 2 2 2-.9 2-2-.9-2-2-2zm0-7c-1.1 0-2 .9-2 2s.9 2 2 2 2-.9 2-2-.9-2-2-2z"/>
        </g>
    </symbol>
    <symbol viewBox="0 0 24 24" id="ri-pencil-line">
        <g>
            <path fill="none" d="M0 0h24v24H0z"/>
            <path d="M15.728 9.686l-1.414-1.414L5 17.586V19h1.414l9.314-9.314zm1.414-1.414l1.414-1.414-1.414-1.414-1.414 1.414 1.414 1.414zM7.242 21H3v-4.243L16.435 3.322a1 1 0 0 1 1.414 0l2.829 2.829a1 1 0 0 1 0 1.414L7.243 21z"/>
        </g>
    </symbol>
    <symbol viewBox="0 0 24 24" id="ri-map-pin-line">
        <g>
            <path fill="none" d="M0 0h24v24H0z"/>
            <path d="M12 20.9l4.95-4.95a7 7 0 1 0-9.9 0L12 20.9zm0 2.828l-6.364-6.364a9 9 0 1 1 12.728 0L12 23.728zM12 13a2 2 0 1 0 0-4 2 2 0 0 0 0 4zm0 2a4 4 0 1 1 0-8 4 4 0 0 1 0 8z"/>
        </g>
    </symbol>
    <symbol viewBox="0 0 24 24" id="ri-phone-line">
        <g>
            <path fill="none" d="M0 0h24v24H0z"/>
            <path fill-rule="nonzero" d="M9.366 10.682a10.556 10.556 0 0 0 3.952 3.952l.884-1.238a1 1 0 0 1 1.294-.296 11.422 11.422 0 0 0 4.583 1.364 1 1 0 0 1 .921.997v4.462a1 1 0 0 1-.898.995c-.53.055-1.064.082-1.602.082C9.94 21 3 14.06 3 5.5c0-.538.027-1.072.082-1.602A1 1 0 0 1 4.077 3h4.462a1 1 0 0 1 .997.921A11.422 11.422 0 0 0 10.9 8.504a1 1 0 0 1-.296 1.294l-1.238.884zm-2.522-.657l1.9-1.357A13.41 13.41 0 0 1 7.647 5H5.01c-.006.166-.009.333-.009.5C5 12.956 11.044 19 18.5 19c.167 0 .334-.003.5-.01v-2.637a13.41 13.41 0 0 1-3.668-1.097l-1.357 1.9a12.442 12.442 0 0 1-1.588-.75l-.058-.033a12.556 12.556 0 0 1-4.702-4.702l-.033-.058a12.442 12.442 0 0 1-.75-1.588z"/>
        </g>
    </symbol>
    <symbol viewBox="0 0 24 24" id="ri-whatsapp-line">
        <g>
            <path fill="none" d="M0 0h24v24H0z"/>
            <path fill-rule="nonzero" d="M7.253 18.494l.724.423A7.953 7.953 0 0 0 12 20a8 8 0 1 0-8-8c0 1.436.377 2.813 1.084 4.024l.422.724-.653 2.401 2.4-.655zM2.004 22l1.352-4.968A9.954 9.954 0 0 1 2 12C2 6.477 6.477 2 12 2s10 4.477 10 10-4.477 10-10 10a9.954 9.954 0 0 1-5.03-1.355L2.004 22zM8.391 7.308c.134-.01.269-.01.403-.004.054.004.108.01.162.016.159.018.334.115.393.249.298.676.588 1.357.868 2.04.062.152.025.347-.093.537a4.38 4.38 0 0 1-.263.372c-.113.145-.356.411-.356.411s-.099.118-.061.265c.014.056.06.137.102.205l.059.095c.256.427.6.86 1.02 1.268.12.116.237.235.363.346.468.413.998.75 1.57 1l.005.002c.085.037.128.057.252.11.062.026.126.049.191.066a.35.35 0 0 0 .367-.13c.724-.877.79-.934.796-.934v.002a.482.482 0 0 1 .378-.127c.06.004.121.015.177.04.531.243 1.4.622 1.4.622l.582.261c.098.047.187.158.19.265.004.067.01.175-.013.373-.032.259-.11.57-.188.733a1.155 1.155 0 0 1-.21.302 2.378 2.378 0 0 1-.33.288 3.71 3.71 0 0 1-.125.09 5.024 5.024 0 0 1-.383.22 1.99 1.99 0 0 1-.833.23c-.185.01-.37.024-.556.014-.008 0-.568-.087-.568-.087a9.448 9.448 0 0 1-3.84-2.046c-.226-.199-.435-.413-.649-.626-.89-.885-1.562-1.84-1.97-2.742A3.47 3.47 0 0 1 6.9 9.62a2.729 2.729 0 0 1 .564-1.68c.073-.094.142-.192.261-.305.127-.12.207-.184.294-.228a.961.961 0 0 1 .371-.1z"/>
        </g>
    </symbol>
    <symbol viewBox="0 0 24 24" id="ri-earth-line">
        <g>
            <path fill="none" d="M0 0h24v24H0z"/>
            <path d="M6.235 6.453a8 8 0 0 0 8.817 12.944c.115-.75-.137-1.47-.24-1.722-.23-.56-.988-1.517-2.253-2.844-.338-.355-.316-.628-.195-1.437l.013-.091c.082-.554.22-.882 2.085-1.178.948-.15 1.197.228 1.542.753l.116.172c.328.48.571.59.938.756.165.075.37.17.645.325.652.373.652.794.652 1.716v.105c0 .391-.038.735-.098 1.034a8.002 8.002 0 0 0-3.105-12.341c-.553.373-1.312.902-1.577 1.265-.135.185-.327 1.132-.95 1.21-.162.02-.381.006-.613-.009-.622-.04-1.472-.095-1.744.644-.173.468-.203 1.74.356 2.4.09.105.107.3.046.519-.08.287-.241.462-.292.498-.096-.056-.288-.279-.419-.43-.313-.365-.705-.82-1.211-.96-.184-.051-.386-.093-.583-.135-.549-.115-1.17-.246-1.315-.554-.106-.226-.105-.537-.105-.865 0-.417 0-.888-.204-1.345a1.276 1.276 0 0 0-.306-.43zM12 22C6.477 22 2 17.523 2 12S6.477 2 12 2s10 4.477 10 10-4.477 10-10 10z"/>
        </g>
    </symbol>
    <symbol viewBox="0 0 24 24" id="ri-mail-line">
        <g>
            <path fill="none" d="M0 0h24v24H0z"/>
            <path d="M3 3h18a1 1 0 0 1 1 1v16a1 1 0 0 1-1 1H3a1 1 0 0 1-1-1V4a1 1 0 0 1 1-1zm17 4.238l-7.928 7.1L4 7.216V19h16V7.238zM4.511 5l7.55 6.662L19.502 5H4.511z"/>
        </g>
    </symbol>
    <symbol viewBox="0 0 24 24" id="ri-question-line">
        <g>
            <path fill="none" d="M0 0h24v24H0z"/>
            <path d="M12 22C6.477 22 2 17.523 2 12S6.477 2 12 2s10 4.477 10 10-4.477 10-10 10zm0-2a8 8 0 1 0 0-16 8 8 0 0 0 0 16zm-1-5h2v2h-2v-2zm2-1.645V14h-2v-1.5a1 1 0 0 1 1-1 1.5 1.5 0 1 0-1.471-1.794l-1.962-.393A3.501 3.501 0 1 1 13 13.355z"/>
        </g>
    </symbol>
    <symbol viewBox="0 0 24 24" id="ri-image-add-line">
        <g>
            <path fill="none" d="M0 0h24v24H0z"/>
            <path d="M21 15v3h3v2h-3v3h-2v-3h-3v-2h3v-3h2zm.008-12c.548 0 .992.445.992.993V13h-2V5H4v13.999L14 9l3 3v2.829l-3-3L6.827 19H14v2H2.992A.993.993 0 0 1 2 20.007V3.993A1 1 0 0 1 2.992 3h18.016zM8 7a2 2 0 1 1 0 4 2 2 0 0 1 0-4z"/>
        </g>
    </symbol>
    <symbol viewBox="0 0 24 24" id="ri-arrow-right-s-line">
        <g>
            <path fill="none" d="M0 0h24v24H0z"/>
            <path d="M13.172 12l-4.95-4.95 1.414-1.414L16 12l-6.364 6.364-1.414-1.414z"/>
        </g>
    </symbol>
    <symbol viewBox="0 0 24 24" id="ri-check-line">
        <g>
            <path fill="none" d="M0 0h24v24H0z"/>
            <path d="M10 15.172l9.192-9.193 1.415 1.414L10 18l-6.364-6.364 1.414-1.414z"/>
        </g>
    </symbol>
    <symbol viewBox="0 0 24 24" id="ri-close-line">
        <g>
            <path fill="none" d="M0 0h24v24H0z"/>
            <path d="M12 10.586l4.95-4.95 1.414 1.414-4.95 4.95 4.95 4.95-1.414 1.414-4.95-4.95-4.95 4.95-1.414-1.414 4.95-4.95-4.95-4.95L7.05 5.636z"/>
        </g>
    </symbol>
    <symbol viewBox="0 0 24 24" id="ri-arrow-down-s-line">
        <g>
            <path fill="none" d="M0 0h24v24H0z"/>
            <path d="M12 13.172l4.95-4.95 1.414 1.414L12 16 5.636 9.636 7.05 8.222z"/>
        </g>
    </symbol>
    <symbol viewBox="0 0 24 24" id="ri-close-circle-line">
        <g>
            <path fill="none" d="M0 0h24v24H0z"/>
            <path d="M12 22C6.477 22 2 17.523 2 12S6.477 2 12 2s10 4.477 10 10-4.477 10-10 10zm0-2a8 8 0 1 0 0-16 8 8 0 0 0 0 16zm0-9.414l2.828-2.829 1.415 1.415L13.414 12l2.829 2.828-1.415 1.415L12 13.414l-2.828 2.829-1.415-1.415L10.586 12 7.757 9.172l1.415-1.415L12 10.586z"/>
        </g>
    </symbol>
    <symbol viewBox="0 0 24 24" id="ri-arrow-go-back-line">
        <g>
            <path fill="none" d="M0 0h24v24H0z"/>
            <path d="M5.828 7l2.536 2.536L6.95 10.95 2 6l4.95-4.95 1.414 1.414L5.828 5H13a8 8 0 1 1 0 16H4v-2h9a6 6 0 1 0 0-12H5.828z"/>
        </g>
    </symbol>
    <symbol viewBox="0 0 24 24" id="ri-search-line">
        <g>
            <path fill="none" d="M0 0h24v24H0z"/>
            <path d="M18.031 16.617l4.283 4.282-1.415 1.415-4.282-4.283A8.96 8.96 0 0 1 11 20c-4.968 0-9-4.032-9-9s4.032-9 9-9 9 4.032 9 9a8.96 8.96 0 0 1-1.969 5.617zm-2.006-.742A6.977 6.977 0 0 0 18 11c0-3.868-3.133-7-7-7-3.868 0-7 3.132-7 7 0 3.867 3.132 7 7 7a6.977 6.977 0 0 0 4.875-1.975l.15-.15z"/>
        </g>
    </symbol>
    <symbol viewBox="0 0 24 24" id="ri-close-circle-line">
        <g>
            <path fill="none" d="M0 0h24v24H0z"/>
            <path d="M12 22C6.477 22 2 17.523 2 12S6.477 2 12 2s10 4.477 10 10-4.477 10-10 10zm0-2a8 8 0 1 0 0-16 8 8 0 0 0 0 16zm0-9.414l2.828-2.829 1.415 1.415L13.414 12l2.829 2.828-1.415 1.415L12 13.414l-2.828 2.829-1.415-1.415L10.586 12 7.757 9.172l1.415-1.415L12 10.586z"/>
        </g>
    </symbol>
    <symbol viewBox="0 0 24 24" id="ri-subtract-line">
        <g>
            <path fill="none" d="M0 0h24v24H0z"/>
            <path d="M5 11h14v2H5z"/>
        </g>
    </symbol>
    <symbol viewBox="0 0 24 24" id="ri-add-line">
        <g>
            <path fill="none" d="M0 0h24v24H0z"/>
            <path d="M11 11V5h2v6h6v2h-6v6h-2v-6H5v-2z"/>
        </g>
    </symbol>
    <symbol viewBox="0 0 24 24" id="ri-indeterminate-circle-line">
        <g>
            <path fill="none" d="M0 0h24v24H0z"/>
            <path d="M12 22C6.477 22 2 17.523 2 12S6.477 2 12 2s10 4.477 10 10-4.477 10-10 10zm0-2a8 8 0 1 0 0-16 8 8 0 0 0 0 16zm-5-9h10v2H7v-2z"/>
        </g>
    </symbol>
    <symbol viewBox="0 0 24 24" id="ri-arrow-left-s-line">
        <g>
            <path fill="none" d="M0 0h24v24H0z"/>
            <path d="M10.828 12l4.95 4.95-1.414 1.414L8 12l6.364-6.364 1.414 1.414z"/>
        </g>
    </symbol>
    <symbol viewBox="0 0 24 24" id="ri-skip-back-line">
        <g>
            <path fill="none" d="M0 0h24v24H0z"/>
            <path d="M8 11.333l10.223-6.815a.5.5 0 0 1 .777.416v14.132a.5.5 0 0 1-.777.416L8 12.667V19a1 1 0 0 1-2 0V5a1 1 0 1 1 2 0v6.333zm9 4.93V7.737L10.606 12 17 16.263z"/>
        </g>
    </symbol>
    <symbol viewBox="0 0 24 24" id="ri-skip-forward-line">
        <g>
            <path fill="none" d="M0 0h24v24H0z"/>
            <path d="M16 12.667L5.777 19.482A.5.5 0 0 1 5 19.066V4.934a.5.5 0 0 1 .777-.416L16 11.333V5a1 1 0 0 1 2 0v14a1 1 0 0 1-2 0v-6.333zm-9-4.93v8.526L13.394 12 7 7.737z"/>
        </g>
    </symbol>
    <symbol viewBox="0 0 24 24" id="ri-filter-line">
        <g>
            <path fill="none" d="M0 0H24V24H0z"/>
            <path d="M21 4v2h-1l-5 7.5V22H9v-8.5L4 6H3V4h18zM6.404 6L11 12.894V20h2v-7.106L17.596 6H6.404z"/>
        </g>
    </symbol>
    <symbol viewBox="0 0 24 24" id="ri-arrow-up-s-line">
        <g>
            <path fill="none" d="M0 0h24v24H0z"/>
            <path d="M12 10.828l-4.95 4.95-1.414-1.414L12 8l6.364 6.364-1.414 1.414z"/>
        </g>
    </symbol>
    <symbol viewBox="0 0 24 24" id="ri-drag-move-line">
        <g>
            <path fill="none" d="M0 0h24v24H0z"/>
            <path d="M12 2l4.243 4.243-1.415 1.414L12 4.828 9.172 7.657 7.757 6.243 12 2zM2 12l4.243-4.243 1.414 1.415L4.828 12l2.829 2.828-1.414 1.415L2 12zm20 0l-4.243 4.243-1.414-1.415L19.172 12l-2.829-2.828 1.414-1.415L22 12zm-10 2a2 2 0 1 1 0-4 2 2 0 0 1 0 4zm0 8l-4.243-4.243 1.415-1.414L12 19.172l2.828-2.829 1.415 1.414L12 22z"/>
        </g>
    </symbol>
    <symbol viewBox="0 0 24 24" id="ri-menu-line">
        <g>
            <path fill="none" d="M0 0h24v24H0z"/>
            <path d="M3 4h18v2H3V4zm0 7h18v2H3v-2zm0 7h18v2H3v-2z"/>
        </g>
    </symbol>
    <symbol viewBox="0 0 24 24" id="ri-delete-bin-line">
        <g>
            <path fill="none" d="M0 0h24v24H0z"/>
            <path d="M17 6h5v2h-2v13a1 1 0 0 1-1 1H5a1 1 0 0 1-1-1V8H2V6h5V3a1 1 0 0 1 1-1h8a1 1 0 0 1 1 1v3zm1 2H6v12h12V8zm-9 3h2v6H9v-6zm4 0h2v6h-2v-6zM9 4v2h6V4H9z"/>
        </g>
    </symbol>
    <symbol viewBox="0 0 24 24" id="ri-list-check-line">
        <g>
            <path fill="none" d="M0 0h24v24H0z"/>
            <path d="M8 4h13v2H8V4zm-5-.5h3v3H3v-3zm0 7h3v3H3v-3zm0 7h3v3H3v-3zM8 11h13v2H8v-2zm0 7h13v2H8v-2z"/>
        </g>
    </symbol>
    <symbol viewBox="0 0 24 24" id="ri-error-warning-fill">
        <g>
            <path fill="none" d="M0 0h24v24H0z"/>
            <path d="M12 22C6.477 22 2 17.523 2 12S6.477 2 12 2s10 4.477 10 10-4.477 10-10 10zm-1-7v2h2v-2h-2zm0-8v6h2V7h-2z"/>
        </g>
    </symbol>
    <symbol viewBox="0 0 24 24" id="ri-list-ordered-line">
        <g>
            <path fill="none" d="M0 0h24v24H0z"/>
            <path d="M8 4h13v2H8V4zM5 3v3h1v1H3V6h1V4H3V3h2zM3 14v-2.5h2V11H3v-1h3v2.5H4v.5h2v1H3zm2 5.5H3v-1h2V18H3v-1h3v4H3v-1h2v-.5zM8 11h13v2H8v-2zm0 7h13v2H8v-2z"/>
        </g>
    </symbol>
    <symbol viewBox="0 0 24 24" id="ri-drag-move-fill">
        <g>
            <path fill="none" d="M0 0h24v24H0z"/>
            <path d="M9,3H11V5H9V3M13,3H15V5H13V3M9,7H11V9H9V7M13,7H15V9H13V7M9,11H11V13H9V11M13,11H15V13H13V11M9,15H11V17H9V15M13,15H15V17H13V15M9,19H11V21H9V19M13,19H15V21H13V19Z"/>
        </g>
    </symbol>
    <symbol viewBox="0 0 24 24" id="ri-price-tag-line">
        <g>
            <path fill="none" d="M0 0h24v24H0z"/>
            <path d="M10.9 2.1l9.899 1.415 1.414 9.9-9.192 9.192a1 1 0 0 1-1.414 0l-9.9-9.9a1 1 0 0 1 0-1.414L10.9 2.1zm.707 2.122L3.828 12l8.486 8.485 7.778-7.778-1.06-7.425-7.425-1.06zm2.12 6.364a2 2 0 1 1 2.83-2.829 2 2 0 0 1-2.83 2.829z"/>
        </g>
    </symbol>
    <symbol viewBox="0 0 24 24" id="ri-soy-line">
        <g>
            <path fill="none" d="M0 0h24v24H0z"/>
            <path d="M6.40004 17C5.60004 17.7 5.20004 18.6 5.90004 19.1C6.60004 19.7 7.80004 19.7 8.70004 19.2C9.30004 18.5 9.90004 17.5 9.20004 17C8.50004 16.5 7.00004 16.3 6.40004 17Z" />
            <path d="M18.4 7.59998C16.9 7.59998 15.4 8.49998 15.4 9.39998C15.2 10.4 15.8 11.6 16.9 11.6C18 11.6 19.4 10.2 19.4 9.39998C19.4 9.29998 19.4 9.29998 19.4 9.19998C19.3 8.39998 19.3 7.59998 18.4 7.59998Z" />
            <path d="M20 4.2L19.6 3.5L18.9 4C18.9 4 18.9 4 18.8 4.1C18.7 4.2 18.6 4.2 18.4 4.4C18 4.6 17.4 5 16.4 5.5C15.7 5.8 15.2 6.2 14.7 6.7C14 5.2 12.8 4.2 12 3.6L11.3 3L10.9 3.6C10.9 3.6 10.9 3.6 10.8 3.7C10.7 3.8 10.6 4 10.5 4.1C10.2 4.5 9.7 5 8.9 5.8C7.2 7.6 6.8 9.5 6.8 11C5.7 11.6 4.9 12.8 4.4 13.9C3.8 15.1 3.5 16.3 3.3 17.2C2.7 18.2 2.4 19.2 2.2 20L2 20.5L2.5 20.8C6.8 22.8 9.7 21.7 11 20.6C13 20.3 14.7 19.4 15.9 18.2C17.1 17.1 17.9 15.9 18.3 14.8C20.8 12.9 21.6 10.8 21.6 8.8C21.6 6.8 20.6 5.2 20 4.2ZM5.7 14.5C6.3 13.3 7 12.4 7.7 12.2L8.2 12V11.5C8.2 10.1 8.4 8.5 10 6.9C10.8 6.1 11.3 5.6 11.6 5.2C12.4 5.9 13.2 6.8 13.6 7.9C13.2 8.5 12.9 9.1 12.7 9.6C11.3 9.8 10.1 10.6 9.2 11.5C8.4 12.3 7.8 13.3 7.4 14C6.7 14.1 6.1 14.3 5.6 14.6C5.6 14.6 5.7 14.5 5.7 14.5ZM17.2 13.7L17 13.9L16.9 14.2C16.7 14.9 16 16.1 14.9 17.1C13.8 18.1 12.3 18.9 10.5 19.1H10.2L10 19.3C9.5 19.9 7.4 21.2 3.7 19.6C3.9 19 4.1 18.4 4.5 17.7C4.6 17.5 4.7 17.4 4.8 17.2C5.5 16.2 6.5 15.5 7.8 15.5H8.3L8.6 15C8.9 14.4 9.4 13.4 10.2 12.5C11 11.7 12 11.1 13.1 11H13.6L13.8 10.5C14.3 9.2 15 7.7 16.9 6.7C17.9 6.2 18.5 5.8 19 5.6C19.5 6.5 19.9 7.6 20 8.7C20.1 10.2 19.5 12 17.2 13.7Z" />
            <path d="M14.7 12.2C13.6 11.8 11.1 12.5 10.7 13.7C9.99996 14.9 9.79996 16.3 11 16.7C12.1 17.1 13.4 17.6 15.2 15.3C15.7 14.1 15.9 12.6 14.7 12.2Z" />
        </g>
    </symbol>
    <symbol viewBox="0 0 24 24" id="ri-gluten-line">
        <g>
            <path fill="none" d="M0 0h24v24H0z"/>
            <path d="M15.75 2.25V4.1895L12.75 7.1895V0.75H11.25V7.1895L8.25 4.1895V2.25H6.75V14.25C6.7521 15.5112 7.2079 16.7296 8.03412 17.6825C8.86033 18.6354 10.0018 19.2592 11.25 19.44V22.5H12.75V19.44C13.9982 19.2592 15.1397 18.6354 15.9659 17.6825C16.7921 16.7296 17.2479 15.5112 17.25 14.25V2.25H15.75ZM11.25 17.9242C10.4036 17.7503 9.64309 17.2899 9.09661 16.6206C8.55013 15.9513 8.25112 15.1141 8.25 14.25V12.3105L11.25 15.3105V17.9242ZM11.25 13.1895L8.25 10.1895V6.3105L11.25 9.3105V13.1895ZM12.75 9.3105L15.75 6.3105V10.1895L12.75 13.1895V9.3105ZM12.75 17.9242V15.3105L15.75 12.3105V14.25C15.7489 15.1141 15.4499 15.9513 14.9034 16.6206C14.3569 17.2899 13.5964 17.7503 12.75 17.9242Z"/>
        </g>
    </symbol>
    <symbol viewBox="0 0 24 24" id="ri-celery-line">
        <g>
            <path fill="none" d="M0 0h24v24H0z"/>
            <path d="M20.1 6.95C20 6.75 19.8 6.65 19.5 6.65H19.2L19.5 6.25C19.6 6.05 19.6 5.75 19.5 5.55C19.4 5.35 19.1 5.15 18.9 5.15H17.9C17.9 4.95 17.8 4.75 17.6 4.65C17.4 4.55 17.2 4.45 17 4.55L16.1 4.75L16.3 3.75C16.4 3.55 16.3 3.25 16.1 3.05C15.9 2.85 15.7 2.75 15.4 2.85L13.9 3.15L12.7 1.55C12.4 1.15 11.8 1.15 11.5 1.55L10.4 3.05L8.89995 2.75C8.59995 2.65 8.39995 2.75 8.19995 2.95C7.99995 3.15 7.89995 3.35 7.99995 3.65L8.19995 4.65L7.29995 4.45C7.09995 4.45 6.89995 4.45 6.69995 4.55C6.49995 4.65 6.39995 4.85 6.39995 5.05H5.19995C4.89995 5.15 4.69995 5.25 4.59995 5.55C4.39995 5.75 4.39995 5.95 4.49995 6.25L4.69995 6.75H4.39995C4.19995 6.75 3.99995 6.85 3.79995 7.05C3.69995 7.15 3.69995 7.35 3.69995 7.55C3.79995 8.35 4.39995 9.55 5.49995 10.35C5.99995 10.65 6.69995 10.95 7.49995 11.05L6.79995 16.95C6.59995 18.45 7.09995 19.95 8.09995 21.05C9.09995 22.15 10.5 22.75 12 22.75C13.5 22.75 14.9 22.15 15.9 21.05C16.9 19.95 17.4 18.45 17.2 16.95L16.5 11.05C17.3 10.95 18 10.65 18.4 10.35C19.5 9.65 20.1 8.45 20.2 7.55C20.4 7.35 20.3 7.15 20.1 6.95ZM8.99995 6.45C9.19995 6.45 9.49995 6.45 9.69995 6.25C9.89995 6.05 9.99995 5.85 9.89995 5.55L9.69995 4.45L10.6 4.65C10.9 4.75 11.2 4.55 11.4 4.35L12.1 3.25L12.9 4.35C13.1 4.55 13.4 4.75 13.7 4.65L14.6 4.45L14.4 5.55C14.3 5.85 14.4 6.05 14.6 6.25C14.8 6.45 15.1 6.45 15.3 6.45L16.4 6.15C16.3 6.65 16 7.35 15.5 7.85C14.6 8.75 13.5 9.25 12.1 9.25C10.7 9.25 9.49995 8.75 8.79995 7.85C8.29995 7.35 7.99995 6.75 7.89995 6.15L8.99995 6.45ZM13.3 20.05C13.3 20.35 13.2 20.65 13 20.95C12.6 21.45 11.8 21.45 11.3 20.95C11.1 20.75 11 20.45 11 20.05L11.4 10.75C11.6 10.75 11.9 10.75 12.1 10.75C12.3 10.75 12.6 10.75 12.8 10.75L13.3 20.05ZM6.59995 7.05L6.39995 6.65H6.49995C6.49995 6.75 6.49995 6.85 6.59995 7.05ZM5.49995 8.25H5.99995C6.29995 8.25 6.49995 8.15 6.59995 7.85C6.69995 7.65 6.69995 7.45 6.69995 7.25C6.89995 7.75 7.19995 8.35 7.59995 8.85C7.79995 9.05 7.99995 9.25 8.29995 9.45C7.59995 9.55 6.89995 9.45 6.39995 9.05C5.99995 8.85 5.69995 8.55 5.49995 8.25ZM8.39995 17.05L9.09995 10.85C9.39995 10.75 9.59995 10.65 9.79995 10.55L9.39995 19.95C9.39995 20.05 9.39995 20.05 9.39995 20.15L9.29995 20.05C8.59995 19.25 8.29995 18.15 8.39995 17.05ZM14.9 19.95L14.8 20.05C14.8 19.95 14.8 19.95 14.8 19.85L14.4 10.55C14.6 10.65 14.8 10.65 15 10.75H15.1L15.8 16.95C15.9 18.15 15.6 19.25 14.9 19.95ZM17.7 9.05C17.2 9.35 16.6 9.55 15.9 9.45C16.2 9.25 16.4 9.05 16.6 8.75C16.9 8.35 17.2 7.95 17.4 7.55C17.4 7.65 17.4 7.75 17.5 7.75C17.6 8.05 17.8 8.25 18.1 8.25H18.6C18.3 8.55 18 8.85 17.7 9.05Z"/>
        </g>
    </symbol>
    <symbol viewBox="0 0 24 24" id="ri-nuts-line">
        <g>
            <path fill="none" d="M0 0h24v24H0z"/>
            <path d="M5.60002 7.3C2.80002 10.5 2.20002 15.1 4.20002 18.9L4.30002 19L4.50002 19.1C6.00002 20 7.70002 20.5 9.40002 20.5C12.2 20.5 14.9 19.3 16.9 17.2L17.4 16.7L6.80002 6L5.60002 7.3ZM15.3 16.6C12.7 19.1 8.70002 19.7 5.40002 17.9C3.80002 14.7 4.30002 10.9 6.70002 8.2L6.80002 8.1L15.3 16.6Z" />
            <path d="M18.8001 8.29999C18.3001 7.69999 17.9001 6.89999 17.7001 6.19999L17.5001 5.39999L16.6001 5.19999C15.9001 4.99999 15.2001 4.69999 14.6001 4.19999C13.7001 3.29999 12.3001 2.89999 11.0001 2.99999C9.60007 3.19999 8.40007 3.89999 7.60007 4.89999L7.20007 5.49999L17.8001 16.1L18.3001 15.6C20.5001 13.7 20.7001 10.5 18.8001 8.29999ZM17.8001 14L9.20007 5.39999C9.70007 4.89999 10.4001 4.59999 11.1001 4.59999C12.0001 4.49999 13.0001 4.79999 13.7001 5.39999C14.4001 5.99999 15.3001 6.49999 16.3001 6.69999C16.6001 7.69999 17.0001 8.59999 17.7001 9.29999C18.9001 10.7 18.9001 12.6 17.8001 14Z" />
        </g>
    </symbol>
    <symbol viewBox="0 0 24 24" id="ri-fish-line">
        <g>
            <path fill="none" d="M0 0h24v24H0z"/>
            <path d="M7.875 4.5L8.29725 5.53125C8.5605 6.1725 8.91825 7.77525 8.83575 8.53125C7.8135 9.16125 7.1865 9.77625 6.70275 10.2892C6.11175 9.8115 4.9425 9 3 9H2.25V9.75C2.25 11.1855 2.76825 12.3517 2.9535 12.75C2.766 13.1453 2.25 14.2703 2.25 15.75V16.5H3C4.9275 16.5 6.111 15.6855 6.7035 15.2108C7.59075 16.125 8.856 17.0887 10.4535 17.8125C10.383 18.2782 10.3275 18.9285 10.5233 19.6875L10.6642 20.25H11.25C12.1755 20.25 12.9727 19.7902 13.617 19.383C14.1442 19.0485 14.3993 18.8145 14.5312 18.7028C17.514 18.5978 19.4182 16.989 20.4375 15.3983C21.492 13.755 21.75 12.117 21.75 12.117L21.7733 11.9295L21.7035 11.742C21.7035 11.742 19.986 7.02525 15.3285 6.7965C14.8335 6.1965 14.1412 5.6985 13.1722 5.2965C12.0262 4.8225 10.5848 4.5 9 4.5H7.875ZM10.0545 6.09375C11.001 6.19875 11.886 6.39 12.5858 6.6795C13.5443 7.0755 14.2118 7.64325 14.367 7.89825L14.5785 8.25H15C18.747 8.25 20.0947 11.7975 20.2035 12.0938C20.151 12.369 19.9335 13.4152 19.1722 14.6017C18.3015 15.9578 16.8923 17.25 14.25 17.25H13.9688L13.758 17.4375C13.758 17.4375 13.362 17.775 12.8205 18.117C12.5355 18.2963 12.2933 18.3285 12 18.4455C12.03 18.1027 12 17.6017 12 17.6017L12.1642 16.9455L11.5545 16.734C9.6975 16.0253 8.118 14.6895 7.3125 13.758L6.7965 13.1483L6.234 13.7108C6.234 13.7108 5.235 14.4113 3.9375 14.742C4.131 13.863 4.4295 13.0785 4.4295 13.0785L4.59375 12.75L4.4295 12.4215C4.4295 12.4215 4.10475 11.5605 3.91425 10.6403C5.2965 10.9455 6.234 11.7892 6.234 11.7892L6.7965 12.3517L7.3125 11.742C7.98375 10.9837 9.79125 9.09375 12.4455 8.742L12.234 7.26525C11.5163 7.35975 10.89 7.5675 10.2892 7.80525C10.251 7.17525 10.2188 6.633 10.0545 6.09375ZM16.875 11.25C16.5766 11.25 16.2905 11.3685 16.0795 11.5795C15.8685 11.7905 15.75 12.0766 15.75 12.375C15.75 12.6734 15.8685 12.9595 16.0795 13.1705C16.2905 13.3815 16.5766 13.5 16.875 13.5C17.1734 13.5 17.4595 13.3815 17.6705 13.1705C17.8815 12.9595 18 12.6734 18 12.375C18 12.0766 17.8815 11.7905 17.6705 11.5795C17.4595 11.3685 17.1734 11.25 16.875 11.25Z" />
        </g>
    </symbol>
    <symbol viewBox="0 0 24 24" id="ri-sesame-line">
        <g>
            <path fill="none" d="M0 0h24v24H0z"/>
            <path d="M8.09999 12.4C7.59999 12.1 6.99999 11.7 6.39999 11.4C6.19999 11.3 5.99999 11.2 5.89999 11.2L5.59999 11L4.89999 10.7L4.69999 11.5V11.6V11.7V11.8C4.69999 11.9 4.59999 12.1 4.59999 12.4C4.49999 13.1 4.29999 13.7 4.29999 14.3C4.09999 15.9 3.99999 17.6 4.59999 18.9C5.09999 19.9 5.89999 20.6 6.89999 21C7.39999 21.2 7.79999 21.3 8.29999 21.3C8.79999 21.3 9.39999 21.2 9.89999 21C10.8 20.6 11.5 19.8 11.9 18.8C12.2 17.8 12.2 16.7 11.7 15.7C10.8 14.2 9.49999 13.2 8.09999 12.4ZM10.3 18.1C9.99999 18.7 9.59999 19.2 8.99999 19.5C8.39999 19.8 7.79999 19.8 7.09999 19.5C6.39999 19.2 5.99999 18.8 5.69999 18.2C5.59999 17.9 5.49999 17.3 5.39999 16.6C5.39999 16 5.39999 15.2 5.49999 14.5C5.59999 13.7 5.69999 13.3 5.79999 12.9V12.8C6.09999 13 6.49999 13.1 7.19999 13.6C7.99999 14 8.59999 14.5 9.09999 14.9C9.59999 15.4 9.99999 15.8 10.1 16.1C10.4 16.7 10.5 17.4 10.3 18.1Z" />
            <path d="M13.5 8C13.4 6.7 12.6 5.5 11.8 4.4C11.4 3.9 11 3.4 10.7 3.1C10.6 3 10.4 2.8 10.4 2.8C10.4 2.8 10.4 2.8 10.3 2.7L9.59999 2L9.19999 2.6H9.09999V2.7L8.99999 2.8H9.09999V2.9C8.99999 3 8.89999 3.1 8.79999 3.3C8.49999 3.8 8.19999 4.3 7.99999 4.8C7.39999 6.1 6.89999 7.4 6.99999 8.6C7.09999 9.6 7.49999 10.4 8.19999 11.1C8.79999 11.7 9.59999 12 10.3 12C10.4 12 10.5 12 10.6 12C11.5 11.9 12.3 11.4 12.8 10.7C13.4 9.9 13.6 9 13.5 8ZM8.39999 8.5C8.39999 8.2 8.39999 7.8 8.59999 7.2C8.79999 6.7 8.99999 6.1 9.29999 5.5C9.59999 5 9.69999 4.7 9.89999 4.4C10.1 4.6 10.3 4.9 10.7 5.4C11.1 5.9 11.4 6.4 11.7 6.9C12 7.4 12.1 7.9 12.2 8.1C12.2 8.7 12 9.2 11.7 9.7C11.4 10.1 11 10.4 10.5 10.4C9.39999 10.5 8.49999 9.7 8.39999 8.5Z" />
            <path d="M19.3 11.3C19.2 10.6 19.2 10 19.1 9.6C19.1 9.4 19 9.2 19 9.1V9V8.9V8.8L18.8 8L18.1 8.4L17.9 8.5H17.8C17.7 8.6 17.5 8.6 17.3 8.8C17 9 16.5 9.3 15.9 9.7C14.7 10.5 13.5 11.4 12.9 12.6C12.5 13.5 12.4 14.5 12.6 15.4C12.8 16.3 13.4 17.1 14.2 17.4C14.6 17.6 15 17.7 15.5 17.7C15.9 17.7 16.4 17.6 16.8 17.4C17.7 17 18.4 16.3 18.8 15.4C19.5 14.3 19.4 12.8 19.3 11.3ZM17.9 13.5C17.9 14.1 17.8 14.6 17.6 14.9C17.1 16 15.9 16.5 15 16C14.6 15.8 14.2 15.4 14.1 14.9C14 14.4 14 13.8 14.3 13.2C14.4 12.9 14.7 12.6 15.2 12.1C15.6 11.7 16.1 11.3 16.7 11C17.2 10.6 17.5 10.5 17.8 10.3C17.9 10.6 17.9 10.9 18 11.6C17.9 12.2 17.9 12.9 17.9 13.5Z" />
        </g>
    </symbol>
    <symbol viewBox="0 0 24 24" id="ri-peanuts-line">
        <g>
            <path fill="none" d="M0 0h24v24H0z"/>
            <path d="M8.20002 16.6C7.80002 17 7.80002 17.6 8.20002 18C8.60002 18.4 9.20002 18.4 9.60002 18C10 17.6 10 17 9.60002 16.6C9.20002 16.2 8.60002 16.2 8.20002 16.6Z" />
            <path d="M8.2 13.7C7.8 13.3 7.2 13.3 6.8 13.7C6.4 14.1 6.4 14.7 6.8 15.1C7.2 15.5 7.8 15.5 8.2 15.1C8.6 14.8 8.6 14.1 8.2 13.7Z" />
            <path d="M15.9 7.39998C15.5 7.79998 15.5 8.39998 15.9 8.79998C16.3 9.19998 16.9 9.19998 17.3 8.79998C17.7 8.39998 17.7 7.79998 17.3 7.39998C17 6.99998 16.3 6.99998 15.9 7.39998Z" />
            <path d="M15.9 2C12.6 1.6 9.60003 4 9.30003 7.3C9.30003 7.6 9.20003 7.8 9.00003 8C8.80003 8.2 8.60003 8.3 8.40003 8.3C7.20003 8.3 6.00003 8.7 5.00003 9.3C2.00003 11.3 1.10003 15.3 3.10003 18.3C3.40003 18.7 3.60003 19.1 4.00003 19.4C5.20003 20.6 6.70003 21.2 8.40003 21.3C12 21.4 15 18.6 15.1 15C15.1 14.5 15.5 14.1 16 14C18.8 13.7 21 11.5 21.3 8.7C21.5 5.3 19.2 2.4 15.9 2ZM18.8 10.4C18.1 11.3 17.1 11.9 16 12C15.2 12.1 14.5 12.4 14 13C13.5 13.6 13.2 14.3 13.2 15.1C13.2 16.3 12.7 17.5 11.8 18.3C10.9 19.2 9.80003 19.6 8.60003 19.7C6.00003 19.8 3.80003 17.7 3.70003 15.1C3.60003 12.5 5.70003 10.3 8.30003 10.2C9.90003 10.2 11.2 9 11.3 7.4C11.4 6.8 11.5 6.3 11.8 5.8C12.1 5.3 12.4 4.9 12.9 4.5C13.3 4.2 13.8 3.9 14.4 3.7C15 3.5 15.5 3.5 16 3.6C17 3.7 17.9 4.1 18.5 4.8L19.2 5.5C19.5 6 19.7 6.6 19.8 7.3C19.8 8.5 19.5 9.6 18.8 10.4Z" />
            <path d="M9.60005 13.7C9.20005 14.1 9.20005 14.7 9.60005 15.1C10 15.5 10.6 15.5 11 15.1C11.4 14.7 11.4 14.1 11 13.7C10.6 13.3 10 13.3 9.60005 13.7Z" />
        </g>
    </symbol>
    <symbol viewBox="0 0 24 24" id="ri-crustaceans-line">
        <g>
            <path fill="none" d="M0 0h24v24H0z"/>
            <path d="M9.05005 8.19995C9.05005 8.69995 9.45005 9.19995 9.95005 9.19995C10.45 9.19995 10.85 8.79995 10.85 8.19995C10.85 7.59995 10.45 7.19995 9.95005 7.19995C9.45005 7.19995 9.05005 7.69995 9.05005 8.19995Z" />
            <path d="M14.15 9.19995C14.65 9.19995 15.05 8.79995 15.05 8.19995C15.05 7.69995 14.65 7.19995 14.15 7.19995C13.65 7.19995 13.25 7.59995 13.25 8.19995C13.25 8.69995 13.65 9.19995 14.15 9.19995Z" />
            <path d="M21.95 15.8L20.65 13.8C20.55 13.7 20.35 13.7 20.25 13.7C20.25 13.5 20.05 13.3 19.85 13.3L18.65 13.5C18.55 13.5 18.55 13.5 18.45 13.5L18.35 13.4C18.35 13.4 18.25 13.4 18.25 13.3C18.15 13.3 18.15 13.3 18.05 13.3C18.05 13.1 18.05 13 18.05 12.8L18.45 12.7C18.55 12.7 18.65 12.6 18.65 12.6C18.65 12.6 18.65 12.6 18.75 12.6L19.45 12.7C19.55 12.7 19.65 12.7 19.75 12.7L20.35 13.2C20.35 13.3 20.55 13.4 20.85 13.5L21.25 13.6C21.45 13.6 21.75 13.5 21.55 13.3L20.45 11.8C20.35 11.7 20.25 11.7 20.15 11.7C20.15 11.5 19.95 11.3 19.75 11.3L18.95 11.5C18.85 11.5 18.75 11.6 18.65 11.7C18.65 11.7 18.55 11.7 18.55 11.6C18.45 11.6 18.45 11.6 18.35 11.6L18.05 11.9C17.95 11.7 17.95 11.5 17.85 11.3C18.15 11.1 18.45 10.9 18.75 10.5C18.85 10.4 18.85 10.3 18.85 10.2C19.05 10.1 19.15 9.99995 19.15 9.79995V8.59995C19.15 8.49995 19.05 8.39995 19.05 8.29995H19.15C19.25 8.19995 19.55 7.79995 19.55 7.49995C19.65 6.89995 19.75 5.99995 19.05 5.19995C17.45 3.79995 16.05 3.69995 15.55 3.69995C15.05 3.69995 15.25 3.89995 15.55 4.19995C15.65 4.29995 16.05 4.59995 16.35 4.99995C16.65 5.39995 16.75 5.79995 16.65 5.79995C16.45 5.89995 15.85 5.59995 15.65 5.39995C15.45 5.19995 15.45 5.09995 15.25 4.79995C15.05 4.49995 15.05 4.29995 14.95 4.39995C14.85 4.49995 14.75 4.69995 14.85 5.09995C14.85 5.39995 15.05 5.69995 15.15 5.99995C15.35 6.59995 15.15 6.49995 15.35 7.19995C15.45 7.59995 15.65 7.89995 16.15 8.29995C16.65 8.69995 17.15 8.69995 17.45 8.69995C17.45 8.79995 17.45 8.89995 17.45 8.99995L17.75 10.1C17.75 10.2 17.85 10.2 17.85 10.2C17.65 10.5 17.45 10.7 17.25 10.8C16.85 10.5 16.45 10.3 15.75 10.1C14.85 9.79995 13.65 9.69995 12.05 9.69995C10.35 9.69995 9.05001 9.79995 8.15001 10.1C7.55001 10.3 7.05001 10.5 6.65001 10.8C6.45001 10.6 6.25001 10.4 6.15001 10.2L6.25001 10.1L6.55001 8.99995C6.55001 8.89995 6.55001 8.79995 6.55001 8.69995C6.85001 8.69995 7.45001 8.69995 8.05001 8.29995C8.55001 7.89995 8.75001 7.59995 8.85001 7.19995C9.05001 6.39995 8.95001 6.59995 9.05001 5.99995C9.15001 5.69995 9.25001 5.39995 9.35001 5.09995C9.35001 4.79995 9.35001 4.49995 9.25001 4.39995C9.15001 4.29995 9.15001 4.39995 8.95001 4.69995C8.75001 5.09995 8.65001 5.09995 8.55001 5.39995C8.35001 5.59995 7.85001 5.99995 7.55001 5.79995C7.45001 5.69995 7.55001 5.29995 7.85001 4.89995C8.15001 4.49995 8.55001 4.19995 8.65001 4.09995C8.95001 3.89995 9.15001 3.69995 8.65001 3.69995C8.15001 3.69995 6.65001 3.79995 5.45001 5.19995C4.65001 6.09995 4.85001 6.99995 4.85001 7.59995C4.85001 7.79995 5.15001 8.19995 5.25001 8.29995C5.15001 8.39995 5.05001 8.49995 5.05001 8.69995V9.89995C5.05001 9.99995 5.05001 10.1 5.15001 10.2C5.25001 10.3 5.25001 10.3 5.35001 10.3C5.35001 10.4 5.35001 10.5 5.45001 10.6C5.65001 10.9 6.05001 11.2 6.25001 11.4C6.15001 11.5 6.05001 11.7 6.05001 11.9L5.75001 11.7H5.65001C5.55001 11.7 5.55001 11.7 5.45001 11.7C5.35001 11.7 5.25001 11.6 5.15001 11.6L4.45001 11.5C4.15001 11.5 4.05001 11.7 4.05001 11.9C4.05001 11.9 4.05001 11.9 3.95001 11.9H3.85001L3.75001 12L2.55001 13.5C2.45001 13.7 2.65001 13.8 2.85001 13.8L3.25001 13.7C3.45001 13.6 3.65001 13.5 3.75001 13.4L4.35001 12.9C4.45001 12.9 4.55001 12.9 4.55001 12.9L5.25001 12.7C5.25001 12.7 5.25001 12.7 5.35001 12.7C5.45001 12.8 5.45001 12.8 5.55001 12.8L5.95001 12.9C5.95001 13 5.95001 13.2 5.95001 13.4C5.85001 13.4 5.85001 13.4 5.75001 13.4C5.65001 13.4 5.65001 13.4 5.65001 13.5L5.55001 13.6C5.45001 13.6 5.45001 13.5 5.35001 13.6L4.15001 13.3C3.95001 13.3 3.75001 13.5 3.75001 13.7H3.65001H3.55001L3.45001 13.8L2.15001 15.8C2.05001 16 2.25001 16.1 2.45001 16.1L2.85001 16C3.05001 15.9 3.15001 15.7 3.25001 15.7L4.15001 14.7C4.25001 14.7 4.35001 14.7 4.35001 14.7L5.45001 14.5C5.45001 14.5 5.45001 14.5 5.55001 14.5C5.65001 14.6 5.65001 14.6 5.75001 14.6H6.05001C6.05001 14.8 6.15001 15 6.35001 15.2H6.15001C5.95001 15.2 5.85001 15.3 5.75001 15.4C5.65001 15.4 5.65001 15.4 5.55001 15.4H4.55001C4.35001 15.4 4.15001 15.6 4.15001 15.8C4.05001 15.8 3.95001 15.8 3.85001 15.9L2.85001 17.5C2.75001 17.7 2.95001 17.8 3.25001 17.8L3.55001 17.7C3.75001 17.6 3.95001 17.4 3.95001 17.4L4.65001 16.7C4.75001 16.7 4.85001 16.7 4.95001 16.7L5.85001 16.3C5.85001 16.3 5.85001 16.3 5.95001 16.3C6.05001 16.4 6.15001 16.4 6.25001 16.4L7.25001 16.3C7.45001 16.5 7.65001 16.6 7.85001 16.8L6.75001 16.9C6.55001 16.9 6.35001 17.1 6.45001 17.3H6.15001C5.95001 17.3 5.85001 17.4 5.85001 17.6L5.75001 18.6C5.75001 18.8 5.85001 19.1 6.05001 19.1C6.05001 19.2 6.05001 19.3 6.15001 19.4C6.15001 19.4 6.55001 19.9 6.95001 20.1C7.45001 20.3 7.65001 20.3 7.65001 20.2C7.75001 20 7.15001 19.7 6.95001 19.4C6.85001 19.2 6.65001 19 6.65001 18.9C6.65001 18.9 6.65001 18.9 6.75001 18.8L7.05001 17.9C7.15001 18 7.25001 18 7.35001 18L9.05001 17.5C9.55001 17.8 10.15 18.1 10.75 18.3C11.05 18.6 11.65 18.7 12.05 18.7C12.45 18.7 13.05 18.6 13.75 18.3C14.25 18.1 14.85 17.8 15.35 17.5L17.05 18C17.15 18 17.25 18 17.35 17.9L17.65 18.8C17.65 18.8 17.65 18.9 17.75 18.9C17.65 19 17.55 19.2 17.45 19.4C17.15 19.8 16.65 20.1 16.75 20.2C16.75 20.3 17.05 20.3 17.45 20.1C17.85 19.9 18.25 19.4 18.25 19.4C18.35 19.3 18.35 19.2 18.35 19.1C18.55 19 18.75 18.8 18.65 18.6L18.55 17.6C18.55 17.4 18.45 17.3 18.25 17.3H17.95C17.95 17.1 17.85 16.9 17.65 16.9L16.45 16.7C16.65 16.5 16.85 16.4 16.95 16.2L17.95 16.3C18.05 16.3 18.15 16.3 18.25 16.2C18.25 16.2 18.25 16.2 18.35 16.2L19.25 16.6C19.35 16.6 19.45 16.6 19.55 16.6L20.25 17.3C20.25 17.4 20.45 17.5 20.65 17.6L20.95 17.8C21.15 17.9 21.45 17.7 21.35 17.5L20.35 15.9C20.25 15.8 20.15 15.7 20.05 15.8C20.05 15.6 19.95 15.4 19.65 15.4H18.65C18.55 15.4 18.55 15.4 18.45 15.4C18.35 15.2 18.25 15.2 18.05 15.2H17.95C18.05 15 18.15 14.8 18.15 14.6H18.45C18.55 14.6 18.65 14.5 18.65 14.5C18.65 14.5 18.65 14.5 18.75 14.5L19.85 14.7C19.95 14.7 20.05 14.7 20.05 14.7L20.95 15.7C20.95 15.8 21.15 15.9 21.45 16L21.85 16.1C21.85 16.1 22.05 16 21.95 15.8ZM13.15 16.9C12.55 17.1 12.15 17.2 11.95 17.2C11.85 17.2 11.55 17.1 10.95 16.9C10.35 16.7 9.75001 16.4 9.25001 16C8.65001 15.6 8.15001 15.2 7.85001 14.8C7.45001 14.4 7.45001 14.2 7.45001 14.1C7.45001 13.8 7.45001 13.5 7.45001 13.2C7.45001 12.9 7.45001 12.7 7.45001 12.5C7.45001 12.1 7.55001 12 7.55001 11.9C7.65001 11.9 7.85001 11.7 8.55001 11.5C9.35001 11.3 10.55 11.2 12.05 11.2C13.45 11.2 14.65 11.3 15.35 11.5C15.85 11.6 16.15 11.8 16.35 12C16.45 12.1 16.55 12.2 16.55 12.6C16.55 12.9 16.55 13.2 16.55 13.5C16.55 13.7 16.55 13.9 16.55 14.1C16.55 14.2 16.45 14.5 16.15 14.8C15.85 15.2 15.45 15.6 14.85 15.9C14.35 16.4 13.75 16.7 13.15 16.9Z" />
        </g>
    </symbol>
    <symbol viewBox="0 0 24 24" id="ri-crustaceans-line">
        <g>
            <path fill="none" d="M0 0h24v24H0z"/>
            <path d="M9.05005 8.19995C9.05005 8.69995 9.45005 9.19995 9.95005 9.19995C10.45 9.19995 10.85 8.79995 10.85 8.19995C10.85 7.59995 10.45 7.19995 9.95005 7.19995C9.45005 7.19995 9.05005 7.69995 9.05005 8.19995Z" />
            <path d="M14.15 9.19995C14.65 9.19995 15.05 8.79995 15.05 8.19995C15.05 7.69995 14.65 7.19995 14.15 7.19995C13.65 7.19995 13.25 7.59995 13.25 8.19995C13.25 8.69995 13.65 9.19995 14.15 9.19995Z" />
            <path d="M21.95 15.8L20.65 13.8C20.55 13.7 20.35 13.7 20.25 13.7C20.25 13.5 20.05 13.3 19.85 13.3L18.65 13.5C18.55 13.5 18.55 13.5 18.45 13.5L18.35 13.4C18.35 13.4 18.25 13.4 18.25 13.3C18.15 13.3 18.15 13.3 18.05 13.3C18.05 13.1 18.05 13 18.05 12.8L18.45 12.7C18.55 12.7 18.65 12.6 18.65 12.6C18.65 12.6 18.65 12.6 18.75 12.6L19.45 12.7C19.55 12.7 19.65 12.7 19.75 12.7L20.35 13.2C20.35 13.3 20.55 13.4 20.85 13.5L21.25 13.6C21.45 13.6 21.75 13.5 21.55 13.3L20.45 11.8C20.35 11.7 20.25 11.7 20.15 11.7C20.15 11.5 19.95 11.3 19.75 11.3L18.95 11.5C18.85 11.5 18.75 11.6 18.65 11.7C18.65 11.7 18.55 11.7 18.55 11.6C18.45 11.6 18.45 11.6 18.35 11.6L18.05 11.9C17.95 11.7 17.95 11.5 17.85 11.3C18.15 11.1 18.45 10.9 18.75 10.5C18.85 10.4 18.85 10.3 18.85 10.2C19.05 10.1 19.15 9.99995 19.15 9.79995V8.59995C19.15 8.49995 19.05 8.39995 19.05 8.29995H19.15C19.25 8.19995 19.55 7.79995 19.55 7.49995C19.65 6.89995 19.75 5.99995 19.05 5.19995C17.45 3.79995 16.05 3.69995 15.55 3.69995C15.05 3.69995 15.25 3.89995 15.55 4.19995C15.65 4.29995 16.05 4.59995 16.35 4.99995C16.65 5.39995 16.75 5.79995 16.65 5.79995C16.45 5.89995 15.85 5.59995 15.65 5.39995C15.45 5.19995 15.45 5.09995 15.25 4.79995C15.05 4.49995 15.05 4.29995 14.95 4.39995C14.85 4.49995 14.75 4.69995 14.85 5.09995C14.85 5.39995 15.05 5.69995 15.15 5.99995C15.35 6.59995 15.15 6.49995 15.35 7.19995C15.45 7.59995 15.65 7.89995 16.15 8.29995C16.65 8.69995 17.15 8.69995 17.45 8.69995C17.45 8.79995 17.45 8.89995 17.45 8.99995L17.75 10.1C17.75 10.2 17.85 10.2 17.85 10.2C17.65 10.5 17.45 10.7 17.25 10.8C16.85 10.5 16.45 10.3 15.75 10.1C14.85 9.79995 13.65 9.69995 12.05 9.69995C10.35 9.69995 9.05001 9.79995 8.15001 10.1C7.55001 10.3 7.05001 10.5 6.65001 10.8C6.45001 10.6 6.25001 10.4 6.15001 10.2L6.25001 10.1L6.55001 8.99995C6.55001 8.89995 6.55001 8.79995 6.55001 8.69995C6.85001 8.69995 7.45001 8.69995 8.05001 8.29995C8.55001 7.89995 8.75001 7.59995 8.85001 7.19995C9.05001 6.39995 8.95001 6.59995 9.05001 5.99995C9.15001 5.69995 9.25001 5.39995 9.35001 5.09995C9.35001 4.79995 9.35001 4.49995 9.25001 4.39995C9.15001 4.29995 9.15001 4.39995 8.95001 4.69995C8.75001 5.09995 8.65001 5.09995 8.55001 5.39995C8.35001 5.59995 7.85001 5.99995 7.55001 5.79995C7.45001 5.69995 7.55001 5.29995 7.85001 4.89995C8.15001 4.49995 8.55001 4.19995 8.65001 4.09995C8.95001 3.89995 9.15001 3.69995 8.65001 3.69995C8.15001 3.69995 6.65001 3.79995 5.45001 5.19995C4.65001 6.09995 4.85001 6.99995 4.85001 7.59995C4.85001 7.79995 5.15001 8.19995 5.25001 8.29995C5.15001 8.39995 5.05001 8.49995 5.05001 8.69995V9.89995C5.05001 9.99995 5.05001 10.1 5.15001 10.2C5.25001 10.3 5.25001 10.3 5.35001 10.3C5.35001 10.4 5.35001 10.5 5.45001 10.6C5.65001 10.9 6.05001 11.2 6.25001 11.4C6.15001 11.5 6.05001 11.7 6.05001 11.9L5.75001 11.7H5.65001C5.55001 11.7 5.55001 11.7 5.45001 11.7C5.35001 11.7 5.25001 11.6 5.15001 11.6L4.45001 11.5C4.15001 11.5 4.05001 11.7 4.05001 11.9C4.05001 11.9 4.05001 11.9 3.95001 11.9H3.85001L3.75001 12L2.55001 13.5C2.45001 13.7 2.65001 13.8 2.85001 13.8L3.25001 13.7C3.45001 13.6 3.65001 13.5 3.75001 13.4L4.35001 12.9C4.45001 12.9 4.55001 12.9 4.55001 12.9L5.25001 12.7C5.25001 12.7 5.25001 12.7 5.35001 12.7C5.45001 12.8 5.45001 12.8 5.55001 12.8L5.95001 12.9C5.95001 13 5.95001 13.2 5.95001 13.4C5.85001 13.4 5.85001 13.4 5.75001 13.4C5.65001 13.4 5.65001 13.4 5.65001 13.5L5.55001 13.6C5.45001 13.6 5.45001 13.5 5.35001 13.6L4.15001 13.3C3.95001 13.3 3.75001 13.5 3.75001 13.7H3.65001H3.55001L3.45001 13.8L2.15001 15.8C2.05001 16 2.25001 16.1 2.45001 16.1L2.85001 16C3.05001 15.9 3.15001 15.7 3.25001 15.7L4.15001 14.7C4.25001 14.7 4.35001 14.7 4.35001 14.7L5.45001 14.5C5.45001 14.5 5.45001 14.5 5.55001 14.5C5.65001 14.6 5.65001 14.6 5.75001 14.6H6.05001C6.05001 14.8 6.15001 15 6.35001 15.2H6.15001C5.95001 15.2 5.85001 15.3 5.75001 15.4C5.65001 15.4 5.65001 15.4 5.55001 15.4H4.55001C4.35001 15.4 4.15001 15.6 4.15001 15.8C4.05001 15.8 3.95001 15.8 3.85001 15.9L2.85001 17.5C2.75001 17.7 2.95001 17.8 3.25001 17.8L3.55001 17.7C3.75001 17.6 3.95001 17.4 3.95001 17.4L4.65001 16.7C4.75001 16.7 4.85001 16.7 4.95001 16.7L5.85001 16.3C5.85001 16.3 5.85001 16.3 5.95001 16.3C6.05001 16.4 6.15001 16.4 6.25001 16.4L7.25001 16.3C7.45001 16.5 7.65001 16.6 7.85001 16.8L6.75001 16.9C6.55001 16.9 6.35001 17.1 6.45001 17.3H6.15001C5.95001 17.3 5.85001 17.4 5.85001 17.6L5.75001 18.6C5.75001 18.8 5.85001 19.1 6.05001 19.1C6.05001 19.2 6.05001 19.3 6.15001 19.4C6.15001 19.4 6.55001 19.9 6.95001 20.1C7.45001 20.3 7.65001 20.3 7.65001 20.2C7.75001 20 7.15001 19.7 6.95001 19.4C6.85001 19.2 6.65001 19 6.65001 18.9C6.65001 18.9 6.65001 18.9 6.75001 18.8L7.05001 17.9C7.15001 18 7.25001 18 7.35001 18L9.05001 17.5C9.55001 17.8 10.15 18.1 10.75 18.3C11.05 18.6 11.65 18.7 12.05 18.7C12.45 18.7 13.05 18.6 13.75 18.3C14.25 18.1 14.85 17.8 15.35 17.5L17.05 18C17.15 18 17.25 18 17.35 17.9L17.65 18.8C17.65 18.8 17.65 18.9 17.75 18.9C17.65 19 17.55 19.2 17.45 19.4C17.15 19.8 16.65 20.1 16.75 20.2C16.75 20.3 17.05 20.3 17.45 20.1C17.85 19.9 18.25 19.4 18.25 19.4C18.35 19.3 18.35 19.2 18.35 19.1C18.55 19 18.75 18.8 18.65 18.6L18.55 17.6C18.55 17.4 18.45 17.3 18.25 17.3H17.95C17.95 17.1 17.85 16.9 17.65 16.9L16.45 16.7C16.65 16.5 16.85 16.4 16.95 16.2L17.95 16.3C18.05 16.3 18.15 16.3 18.25 16.2C18.25 16.2 18.25 16.2 18.35 16.2L19.25 16.6C19.35 16.6 19.45 16.6 19.55 16.6L20.25 17.3C20.25 17.4 20.45 17.5 20.65 17.6L20.95 17.8C21.15 17.9 21.45 17.7 21.35 17.5L20.35 15.9C20.25 15.8 20.15 15.7 20.05 15.8C20.05 15.6 19.95 15.4 19.65 15.4H18.65C18.55 15.4 18.55 15.4 18.45 15.4C18.35 15.2 18.25 15.2 18.05 15.2H17.95C18.05 15 18.15 14.8 18.15 14.6H18.45C18.55 14.6 18.65 14.5 18.65 14.5C18.65 14.5 18.65 14.5 18.75 14.5L19.85 14.7C19.95 14.7 20.05 14.7 20.05 14.7L20.95 15.7C20.95 15.8 21.15 15.9 21.45 16L21.85 16.1C21.85 16.1 22.05 16 21.95 15.8ZM13.15 16.9C12.55 17.1 12.15 17.2 11.95 17.2C11.85 17.2 11.55 17.1 10.95 16.9C10.35 16.7 9.75001 16.4 9.25001 16C8.65001 15.6 8.15001 15.2 7.85001 14.8C7.45001 14.4 7.45001 14.2 7.45001 14.1C7.45001 13.8 7.45001 13.5 7.45001 13.2C7.45001 12.9 7.45001 12.7 7.45001 12.5C7.45001 12.1 7.55001 12 7.55001 11.9C7.65001 11.9 7.85001 11.7 8.55001 11.5C9.35001 11.3 10.55 11.2 12.05 11.2C13.45 11.2 14.65 11.3 15.35 11.5C15.85 11.6 16.15 11.8 16.35 12C16.45 12.1 16.55 12.2 16.55 12.6C16.55 12.9 16.55 13.2 16.55 13.5C16.55 13.7 16.55 13.9 16.55 14.1C16.55 14.2 16.45 14.5 16.15 14.8C15.85 15.2 15.45 15.6 14.85 15.9C14.35 16.4 13.75 16.7 13.15 16.9Z" />
        </g>
    </symbol>
    <symbol viewBox="0 0 24 24" id="ri-dairy-line">
        <g>
            <path fill="none" d="M0 0h24v24H0z"/>
            <path d="M17 10.4C17 10.3 16.9 10.2 16.9 10.1C16.8 9.9 16.7 9.5 16.5 9.2C16.3 8.5 15.9 7.7 15.6 7L15.1 6C14.9 5.5 14.7 5.1 14.5 4.7C14.4 4.4 14.3 4.2 14.2 3.9C14.2 3.8 14.1 3.6 14.1 3.4C14.1 3.3 14.1 3.1 14.2 3L14.6 2H9.4L9.7 3C9.7 3.1 9.8 3.3 9.8 3.4C9.8 3.7 9.6 4.4 9.5 4.6C9.3 5.1 9 5.8 8.5 6.9C8.2 7.6 7.8 8.4 7.5 9.1C7.3 9.5 7.2 9.8 7.1 10C7.1 10.1 7 10.3 7 10.4V20.6C7 21.3 7.6 22 8.5 22H15.5C16.4 22 17 21.3 17 20.6V10.6V10.4ZM15.6 20.5H8.6V10.8C8.6 10.8 8.6 10.7 8.7 10.6C8.8 10.4 8.9 10.1 9 9.8C9.3 9.1 9.7 8.3 10 7.6C10.5 6.5 10.8 5.7 11.1 5.2C11.3 4.6 11.5 4 11.5 3.5H12.8C12.8 3.8 12.9 4.2 13 4.4C13.1 4.7 13.2 5 13.3 5.3C13.5 5.7 13.7 6.1 13.9 6.6L14.4 7.6C14.7 8.3 15.1 9.1 15.3 9.7C15.4 10 15.5 10.3 15.6 10.5C15.6 10.6 15.6 10.6 15.7 10.7V20.5H15.6Z"/>
            <path d="M12.1 11C10.4 12.2 9.5 10.4 9.5 11.2V18.7C9.5 19.5 10.1 19.7 10.9 19.7H13.1C13.9 19.7 14.5 19.5 14.5 18.7V11.2C14.6 10.4 13.7 9.79998 12.1 11Z"/>
        </g>
    </symbol>
    <symbol viewBox="0 0 24 24" id="ri-eggs-line">
        <g>
            <path fill="none" d="M0 0h24v24H0z"/>
            <path d="M18.5458 6.99998C17.6458 5.59998 16.3458 4.09998 15.2458 4.09998C14.1458 4.09998 12.8458 5.59998 11.9458 6.99998C11.8458 7.19998 11.6458 7.39998 11.5458 7.59998C11.2458 7.29998 10.9458 6.89998 10.6458 6.69998C10.3458 6.39998 10.0458 6.19998 9.74575 6.09998C9.64575 5.99998 9.54575 5.99998 9.44575 5.89998H9.24575C9.14575 5.89998 9.14575 5.89998 9.14575 5.89998H8.84575C8.74575 5.99998 8.64575 5.99998 8.54575 6.09998C8.24575 6.19998 7.94575 6.39998 7.64575 6.69998C7.04575 7.19998 6.44575 7.89998 5.84575 8.79998C4.54575 10.8 3.64575 13.2 3.64575 14.8C3.64575 16.2 4.24575 17.4 5.24575 18.4C6.24575 19.4 7.64575 19.9 9.14575 19.9C10.6458 19.9 11.9458 19.4 13.0458 18.4C13.3458 18.1 13.6458 17.8 13.8458 17.4C14.3458 17.5 14.7458 17.6 15.2458 17.6C16.6458 17.6 17.9458 17.1 18.8458 16.1C19.8458 15.1 20.3458 13.8 20.3458 12.5C20.4458 11 19.6458 8.79998 18.5458 6.99998ZM12.0458 17.3C11.2458 18 10.2458 18.4 9.14575 18.4C8.04575 18.4 7.04575 18 6.24575 17.3C5.54575 16.6 5.14575 15.7 5.14575 14.8C5.14575 13.7 5.84575 11.6 7.04575 9.59998C7.54575 8.89998 8.14575 8.19998 8.64575 7.79998C8.84575 7.59998 9.04575 7.49998 9.14575 7.39998C9.24575 7.49998 9.44575 7.59998 9.64575 7.79998C10.1458 8.19998 10.7458 8.89998 11.2458 9.69998C12.5458 11.6 13.1458 13.7 13.1458 14.9C13.1458 15.7 12.7458 16.6 12.0458 17.3ZM17.8458 15.1C16.9458 16 15.6458 16.3 14.4458 16.1C14.5458 15.7 14.6458 15.3 14.6458 14.8C14.6458 13.2 13.8458 10.9 12.5458 8.99998C12.7458 8.59998 12.9458 8.19998 13.1458 7.79998C14.1458 6.19998 14.9458 5.69998 15.1458 5.59998C15.3458 5.59998 16.2458 6.19998 17.1458 7.79998C18.1458 9.29998 18.7458 11.3 18.7458 12.5C18.9458 13.5 18.5458 14.4 17.8458 15.1Z"/>
        </g>
    </symbol>
    <symbol viewBox="0 0 24 24" id="ri-lupins-line">
        <g>
            <path fill="none" d="M0 0h24v24H0z"/>
            <path d="M22.0042 12.3984C21.4042 11.7984 20.6042 11.3984 19.7042 11.3984C18.0042 11.3984 17.6042 11.1984 17.1042 10.9984C16.8042 10.8984 16.3042 10.6984 15.4042 10.4984C15.0042 10.3984 13.9042 10.2984 13.0042 10.9984C12.3042 11.4984 11.9042 12.3984 11.7042 13.4984C11.7042 13.5984 11.7042 13.6984 11.7042 13.6984C11.0042 13.0984 10.1042 12.8984 9.2042 12.9984C7.2042 13.2984 6.7042 13.2984 6.0042 13.1984C5.6042 13.0984 5.1042 12.9984 4.3042 12.9984C2.4042 12.9984 1.3042 14.2984 1.3042 16.5984C1.3042 17.6984 1.7042 18.4984 2.4042 19.1984C3.6042 20.3984 5.7042 20.4984 6.4042 20.4984C6.6042 20.4984 6.7042 20.4984 6.7042 20.4984C6.8042 20.4984 10.0042 20.6984 11.7042 19.0984C12.4042 18.4984 12.7042 17.5984 12.7042 16.6984C14.1042 17.9984 16.2042 18.2984 16.3042 18.2984C16.4042 18.2984 17.3042 18.4984 18.4042 18.4984C19.4042 18.4984 20.5042 18.2984 21.3042 17.7984C22.1042 17.2984 22.5042 16.4984 22.6042 15.4984C22.9042 13.7984 22.4042 12.8984 22.0042 12.3984ZM8.6042 14.5984C8.6042 14.8984 8.6042 15.0984 8.6042 15.2984C8.5042 15.5984 8.4042 15.6984 8.2042 15.6984C7.4042 15.8984 6.1042 15.6984 5.7042 15.5984C5.6042 15.3984 5.6042 14.9984 5.7042 14.5984C5.8042 14.5984 5.9042 14.5984 5.9042 14.5984C6.5042 14.7984 7.1042 14.7984 8.6042 14.5984ZM10.7042 17.9984C9.7042 18.9984 7.5042 19.0984 6.7042 18.9984C6.1042 18.9984 4.3042 18.9984 3.4042 18.0984C3.0042 17.6984 2.8042 17.1984 2.8042 16.5984C2.8042 14.7984 3.6042 14.5984 4.1042 14.4984C4.0042 15.3984 4.1042 16.3984 4.8042 16.7984C5.3042 17.0984 6.3042 17.1984 7.2042 17.1984C7.7042 17.1984 8.1042 17.1984 8.5042 17.0984C9.2042 16.8984 9.8042 16.3984 10.0042 15.6984C10.1042 15.2984 10.1042 14.8984 10.1042 14.4984C10.3042 14.4984 10.5042 14.5984 10.7042 14.7984C11.1042 15.0984 11.3042 15.7984 11.3042 16.5984C11.3042 17.1984 11.1042 17.5984 10.7042 17.9984ZM19.1042 12.7984C19.1042 13.1984 18.9042 13.5984 18.5042 13.6984C17.7042 13.7984 16.4042 13.4984 16.0042 13.2984C16.0042 13.0984 16.0042 12.6984 16.1042 12.2984C16.3042 12.3984 16.4042 12.3984 16.5042 12.4984C17.2042 12.5984 17.7042 12.7984 19.1042 12.7984ZM21.2042 15.1984C21.1042 15.7984 20.9042 16.1984 20.5042 16.3984C19.4042 17.0984 17.4042 16.8984 16.6042 16.6984C16.6042 16.6984 14.5042 16.3984 13.6042 15.2984C13.3042 14.8984 13.1042 14.2984 13.2042 13.6984C13.3042 12.9984 13.5042 12.4984 13.9042 12.1984C14.1042 11.9984 14.4042 11.9984 14.6042 11.8984C14.4042 12.7984 14.4042 13.7984 15.0042 14.2984C15.6042 14.7984 17.1042 15.0984 18.2042 15.0984C18.4042 15.0984 18.5042 15.0984 18.7042 15.0984C19.1042 14.9984 20.3042 14.6984 20.6042 12.9984C20.7042 13.0984 20.8042 13.1984 20.9042 13.2984C21.2042 13.6984 21.3042 14.3984 21.2042 15.1984Z"/>
            <path d="M6.30422 11.6985C6.40422 11.6985 7.50422 12.0985 8.90422 12.0985C9.70422 12.0985 10.6042 11.8985 11.3042 11.4985C12.1042 10.9985 12.6042 10.2985 12.8042 9.2985C13.1042 7.6985 12.6042 6.7985 12.2042 6.1985C11.7042 5.4985 10.9042 5.0985 10.0042 5.0985C8.30422 4.8985 7.90422 4.5985 7.40422 4.2985C7.00422 4.0985 6.50422 3.7985 5.50422 3.5985C5.30422 3.4985 4.40422 3.2985 3.50422 3.9985C2.60422 4.4985 2.10422 5.3985 1.90422 6.6985C1.70422 7.6985 1.90422 8.5985 2.50422 9.3985C3.60422 11.1985 6.20422 11.6985 6.30422 11.6985ZM9.20422 6.4985C9.20422 6.9985 9.00422 7.4985 8.60422 7.4985C7.70422 7.4985 6.50422 6.9985 6.10422 6.7985C6.10422 6.4985 6.20422 5.9985 6.50422 5.4985C6.50422 5.4985 6.60422 5.4985 6.60422 5.5985C7.10422 5.9985 7.70422 6.2985 9.20422 6.4985ZM3.30422 6.9985C3.50422 6.0985 3.80422 5.4985 4.30422 5.1985C4.60422 4.9985 4.90422 4.9985 5.10422 4.9985C4.70422 5.8985 4.40422 7.1985 5.10422 7.7985C5.70422 8.3985 7.50422 8.9985 8.60422 8.9985C9.10422 8.9985 10.4042 8.7985 10.8042 6.7985C10.9042 6.8985 11.0042 6.9985 11.1042 7.0985C11.3042 7.5985 11.4042 8.1985 11.3042 8.9985C11.2042 9.5985 10.9042 9.9985 10.5042 10.1985C9.40422 10.8985 7.40422 10.4985 6.60422 10.1985C6.00422 10.0985 4.40422 9.5985 3.60422 8.5985C3.30422 8.0985 3.20422 7.5985 3.30422 6.9985Z"/>
        </g>
    </symbol>
    <symbol viewBox="0 0 24 24" id="ri-mollusks-line">
        <g>
            <path fill="none" d="M0 0h24v24H0z"/>
            <path d="M3.35474 17.5C3.35474 17.8 3.45474 18.1 3.75474 18.4C3.95474 18.6 4.25474 18.8 4.65474 18.8H7.75474L3.45473 16V17.5H3.35474Z"/>
            <path d="M21.8547 11.8C21.7547 11.3 21.6547 10.9 21.4547 10.5C21.2547 10.1 20.9547 9.79995 20.5547 9.39995C20.1547 9.09995 19.7547 8.79995 19.3547 8.69995C19.3547 8.19995 19.2547 7.49995 18.8547 6.89995C18.4547 6.19995 18.0547 5.69995 17.6547 5.39995C17.2547 5.19995 16.7547 4.99995 16.1547 4.99995C15.5547 4.99995 14.9547 5.09995 14.5547 5.39995C14.3547 4.89995 13.9547 4.49995 13.4547 4.19995C13.0547 3.89995 12.5547 3.79995 12.2547 3.69995H11.9547C11.5547 3.69995 11.1547 3.89995 10.7547 4.19995C10.2547 4.49995 9.85471 4.89995 9.65471 5.39995C9.15471 5.09995 8.55471 4.89995 7.95471 4.99995C7.35471 4.99995 6.75471 5.19995 6.35471 5.49995C5.95471 5.79995 5.55471 6.29995 5.15471 6.99995C4.75471 7.69995 4.65471 8.29995 4.65471 8.79995C4.25471 8.89995 3.85471 9.09995 3.45471 9.49995C3.05471 9.89995 2.75471 10.2 2.55471 10.6C2.35471 10.9 2.25471 11.4 2.15471 11.9C2.05471 12.4 2.05471 12.9 2.15471 13.4C2.25471 13.9 2.45471 14.2 2.75471 14.4L10.2547 19.3C10.5547 19.7 10.8547 19.9 11.1547 20.1C11.3547 20.2 11.6547 20.2999 11.8547 20.2999H12.1547C12.4547 20.2999 12.6547 20.2 12.8547 20.1C13.1547 19.9 13.4547 19.7 13.7547 19.3L21.2547 14.4C21.5547 14.2 21.7547 13.9 21.7547 13.4C21.9547 12.8 21.9547 12.3 21.8547 11.8ZM20.3547 13V13.1L12.9547 18L12.7547 18.2C12.5547 18.4 12.3547 18.6 12.2547 18.6C12.1547 18.6 12.1547 18.6 12.0547 18.7C11.9547 18.7 11.9547 18.7 11.8547 18.6C11.7547 18.5 11.5547 18.4 11.2547 18.1L3.75471 13.1V13C3.65471 12.7 3.65471 12.4 3.75471 12C3.85471 11.6 3.95471 11.3 3.95471 11.2C3.95471 11 4.15471 10.8 4.45471 10.6C4.75471 10.3 4.95471 10.3 5.05471 10.3L5.55471 10.2L8.25471 12.9C8.35471 13 8.55471 13.1 8.65471 13.1C8.85471 13.1 8.95471 13 9.05471 12.9C9.25471 12.7 9.25471 12.3 9.05471 12.1L6.15471 9.09995V8.59995C6.15471 8.49995 6.15471 8.09995 6.45471 7.59995C6.75471 6.99995 7.05471 6.79995 7.15471 6.69995C7.35471 6.59995 7.65471 6.49995 8.05471 6.39995C8.45471 6.39995 8.55471 6.49995 8.65471 6.49995L9.15471 6.99995L10.1547 11.4C10.2547 11.7 10.4547 11.9 10.7547 11.9H10.8547C11.1547 11.8 11.3547 11.5 11.3547 11.2L10.4547 7.09995L10.9547 5.99995C11.0547 5.79995 11.2547 5.59995 11.4547 5.49995C11.7547 5.29995 11.9547 5.29995 12.0547 5.19995C12.1547 5.19995 12.3547 5.29995 12.6547 5.49995C12.8547 5.59995 13.0547 5.79995 13.1547 5.99995L13.5547 6.99995L12.7547 11.3C12.6547 11.6 12.9547 11.9 13.2547 12H13.3547C13.6547 12 13.8547 11.8 13.9547 11.5L14.8547 6.99995L15.4547 6.49995C15.4547 6.49995 15.6547 6.39995 16.0547 6.39995C16.4547 6.39995 16.7547 6.49995 16.9547 6.69995C17.0547 6.79995 17.3547 6.99995 17.6547 7.59995C17.9547 8.09995 17.9547 8.49995 17.9547 8.59995V9.19995L15.0547 11.8C14.8547 12 14.7547 12.4 15.0547 12.6C15.1547 12.7 15.3547 12.8 15.4547 12.8C15.5547 12.8 15.7547 12.7 15.8547 12.6L18.7547 9.99995L19.1547 10.1C19.2547 10.1 19.4547 10.2 19.7547 10.4C19.8547 10.8 20.0547 11 20.1547 11.2C20.2547 11.3 20.3547 11.6 20.3547 12C20.4547 12.3 20.4547 12.7 20.3547 13Z"/>
            <path d="M19.6547 18.6999C20.0547 18.6999 20.3547 18.5999 20.5547 18.2999C20.7547 18.0999 20.9547 17.7999 20.9547 17.3999V15.8999L16.5547 18.6999H19.6547Z"/>
        </g>
    </symbol>
    <symbol viewBox="0 0 24 24" id="ri-mustard-line">
        <g>
            <path fill="none" d="M0 0h24v24H0z"/>
            <path d="M19.55 19.95C18.45 20.45 16.35 21.05 15.65 20.15C13.85 18.05 12.35 18.25 8.95002 19.95C7.45002 20.65 6.65002 20.25 5.75002 19.85C5.25002 19.55 4.65002 19.35 3.95002 19.35C3.55002 19.35 3.15002 19.65 3.15002 20.15C3.15002 20.65 3.45002 20.95 3.95002 20.95C4.25002 20.95 4.65002 21.15 5.05002 21.35C6.05002 21.85 7.45002 22.55 9.55002 21.45C12.95 19.75 13.45 20.05 14.45 21.25C15.05 21.95 16.05 22.25 16.95 22.25C18.15 22.25 19.35 21.85 20.25 21.45C20.65 21.25 20.75 20.85 20.55 20.45C20.35 19.85 19.95 19.75 19.55 19.95Z"/>
            <path d="M5.25002 18.45C5.35002 18.45 5.55002 18.45 5.65002 18.35L9.55002 16.45C9.85002 16.65 10.25 16.85 10.55 16.85C10.95 16.85 11.45 16.65 11.75 16.35L12.15 15.95C12.25 15.85 12.35 15.65 12.45 15.45C12.65 15.45 12.75 15.55 12.95 15.55C13.45 15.55 13.95 15.35 14.35 14.95L20.25 9.05C21.05 8.25 21.05 7.05 20.25 6.25L16.35 2.35C15.55 1.55 14.35 1.55 13.55 2.35L7.85002 8.15C7.45002 8.55 7.25002 9.05 7.25002 9.55C7.25002 9.65 7.25002 9.85 7.25002 9.95C7.05002 10.05 6.95002 10.25 6.75002 10.35L6.35002 10.75C5.75002 11.35 5.65002 12.45 6.25002 13.15L4.35002 17.05C4.15002 17.45 4.25002 17.85 4.55002 18.15C4.75002 18.35 4.95002 18.45 5.25002 18.45ZM6.35002 16.35L7.35002 14.25L8.45002 15.35L6.35002 16.35ZM11.25 14.85L10.85 15.25C10.75 15.35 10.55 15.35 10.45 15.25L7.35002 12.15C7.25002 12.05 7.25002 11.85 7.35002 11.75L7.75002 11.35C7.75002 11.35 7.85002 11.25 7.95002 11.25C8.05002 11.25 8.15002 11.35 8.15002 11.45L11.25 14.55C11.35 14.55 11.35 14.75 11.25 14.85ZM8.85002 9.25L14.75 3.35C14.85 3.25 14.95 3.25 15.15 3.25C15.35 3.25 15.45 3.25 15.55 3.35L19.45 7.25C19.65 7.45 19.65 7.75 19.45 7.95L17.95 9.45L14.55 6.05L11.65 8.95L15.05 12.35L13.55 13.85C13.35 14.05 13.05 14.05 12.85 13.85L8.85002 9.95C8.75002 9.85 8.75002 9.75 8.75002 9.55C8.75002 9.45 8.75002 9.35 8.85002 9.25Z"/>
        </g>
    </symbol>
    <symbol viewBox="0 0 24 24" id="ri-sulphites-line">
        <g>
            <path fill="none" d="M0 0h24v24H0z"/>
            <path d="M20.5 17.4L15 7.8V6C15.3 6 15.5 5.9 15.7 5.7C15.9 5.5 16 5.3 16 5V4C16 3.5 15.8 3 15.4 2.6C15 2.2 14.5 2 14 2H10C9.5 2 9 2.2 8.6 2.6C8.2 3 8 3.5 8 4V5C8 5.3 8.1 5.5 8.3 5.7C8.5 5.9 8.7 6 9 6V7.8L3.5 17.4C3.2 17.8 3 18.4 3 19C3 19.8 3.3 20.6 3.9 21.1C4.4 21.7 5.2 22 6 22H18C18.8 22 19.6 21.7 20.1 21.1C20.7 20.5 21 19.8 21 19C21 18.4 20.8 17.8 20.5 17.4ZM19.4 19.9C19.2 20.2 18.8 20.5 18.5 20.5H5.5C5.2 20.4 4.9 20.2 4.7 19.9C4.6 19.6 4.4 19.4 4.6 18.9C4.6 18.6 4.9 18.2 5 18L10.5 8.3V3.5H13.5V8.3L19.1 18C19.2 18.2 19.4 18.5 19.5 18.9C19.6 19.2 19.6 19.5 19.4 19.9Z"/>
            <path d="M8.29995 15.9C8.49995 15.9 8.69995 16 8.79995 16.1C8.89995 16.2 8.99995 16.4 8.99995 16.6H10.2C10.2 16.3 10.1 16 9.99995 15.8C9.79995 15.6 9.59995 15.4 9.29995 15.3C8.99995 15 8.59995 15 8.29995 15C7.89995 15 7.59995 15.1 7.29995 15.2C6.99995 15.3 6.79995 15.5 6.59995 15.7C6.39995 15.9 6.39995 16.2 6.39995 16.4C6.39995 17 6.69995 17.4 7.39995 17.7C7.59995 17.8 7.89995 17.9 8.19995 18C8.49995 18.1 8.69995 18.2 8.89995 18.3C8.99995 18.4 9.09995 18.5 9.09995 18.7C9.09995 18.9 8.99995 19 8.89995 19.1C8.79995 19.2 8.59995 19.2 8.39995 19.2C8.09995 19.2 7.89995 19.1 7.69995 19C7.59995 18.9 7.49995 18.7 7.49995 18.4H6.19995C6.19995 18.7 6.29995 19 6.39995 19.3C6.59995 19.6 6.79995 19.7 7.09995 19.9C7.39995 20 7.79995 20.1 8.19995 20.1C8.79995 20.1 9.19995 20 9.59995 19.7C9.99995 19.4 10.1 19.1 10.1 18.7C10.1 18.2 9.79995 17.7 9.29995 17.4C9.09995 17.3 8.79995 17.2 8.49995 17C8.19995 16.9 7.89995 16.8 7.79995 16.7C7.69995 16.6 7.59995 16.5 7.59995 16.4C7.59995 16.3 7.69995 16.1 7.79995 16C7.89995 15.9 7.99995 15.9 8.29995 15.9Z"/>
            <path d="M13.9 15.3C13.6 15.1 13.2 15 12.8 15C12.4 15 12 15.1 11.7 15.3C11.4 15.5 11.1 15.8 10.9 16.2C10.7 16.6 10.6 17 10.6 17.5V17.8C10.6 18.3 10.7 18.7 10.9 19C11.1 19.4 11.3 19.6 11.7 19.8C12 20 12.4 20.1 12.8 20.1C13.2 20.1 13.6 20 13.9 19.8C14.2 19.6 14.5 19.3 14.7 18.9C14.9 18.5 15 18.1 15 17.6V17.4C15 16.9 14.9 16.5 14.7 16.1C14.5 15.7 14.3 15.5 13.9 15.3ZM13.8 17.6C13.8 18.1 13.7 18.5 13.6 18.7C13.4 19 13.2 19.1 12.9 19.1C12.6 19.1 12.3 19 12.2 18.7C12 18.4 12 18.1 12 17.6V17.2C12 16.3 12.4 15.8 13 15.8C13.3 15.8 13.5 15.9 13.7 16.2C13.9 16.5 13.9 16.8 13.9 17.3V17.6H13.8Z"/>
            <path d="M16.7 16.9C17 16.7 17.2 16.5 17.3 16.3C17.4 16.2 17.4 16 17.4 15.8C17.4 15.5 17.3 15.3 17.1 15.2C16.9 15.1 16.6 15 16.3 15C16 15 15.7 15.1 15.5 15.3C15.3 15.5 15.2 15.7 15.2 16H16C16 15.9 16 15.8 16.1 15.8C16.2 15.7 16.2 15.7 16.3 15.7C16.5 15.7 16.6 15.8 16.6 16C16.6 16 16.6 16.1 16.5 16.2C16.4 16.3 16.4 16.4 16.2 16.5L15.2 17.4V17.9H17.3V17.3H16.2L16.7 16.9Z"/>
        </g>
    </symbol>
    <symbol viewBox="0 0 24 24" id="ri-file-list-line">
        <g>
            <path fill="none" d="M0 0h24v24H0z"/>
            <path d="M19 22H5a3 3 0 0 1-3-3V3a1 1 0 0 1 1-1h14a1 1 0 0 1 1 1v12h4v4a3 3 0 0 1-3 3zm-1-5v2a1 1 0 0 0 2 0v-2h-2zm-2 3V4H4v15a1 1 0 0 0 1 1h11zM6 7h8v2H6V7zm0 4h8v2H6v-2zm0 4h5v2H6v-2z"/>
        </g>
    </symbol>
    <symbol viewBox="0 0 24 24" id="ri-navigation-line">
        <g>
            <path fill="none" d="M0 0h24v24H0z"/>
            <path d="M4.965 5.096l3.546 12.41 3.04-6.08 5.637-2.255L4.965 5.096zM2.899 2.3l18.806 6.268a.5.5 0 0 1 .028.939L13 13l-4.425 8.85a.5.5 0 0 1-.928-.086L2.26 2.911A.5.5 0 0 1 2.9 2.3z"/>
        </g>
    </symbol>
    <symbol viewBox="0 0 24 24" id="ri-subtract-line">
        <g>
            <path fill="none" d="M0 0h24v24H0z"/>
            <path d="M5 11h14v2H5z"/>
        </g>
    </symbol>
    <symbol viewBox="0 0 24 24" id="ri-qr-code-line">
        <g>
            <path fill="none" d="M0 0h24v24H0z"/>
            <path d="M16 17v-1h-3v-3h3v2h2v2h-1v2h-2v2h-2v-3h2v-1h1zm5 4h-4v-2h2v-2h2v4zM3 3h8v8H3V3zm2 2v4h4V5H5zm8-2h8v8h-8V3zm2 2v4h4V5h-4zM3 13h8v8H3v-8zm2 2v4h4v-4H5zm13-2h3v2h-3v-2zM6 6h2v2H6V6zm0 10h2v2H6v-2zM16 6h2v2h-2V6z"/>
        </g>
    </symbol>
    <symbol viewBox="0 0 24 24" id="ri-global-line">
        <g>
            <path fill="none" d="M0 0h24v24H0z"/>
            <path d="M12 22C6.477 22 2 17.523 2 12S6.477 2 12 2s10 4.477 10 10-4.477 10-10 10zm-2.29-2.333A17.9 17.9 0 0 1 8.027 13H4.062a8.008 8.008 0 0 0 5.648 6.667zM10.03 13c.151 2.439.848 4.73 1.97 6.752A15.905 15.905 0 0 0 13.97 13h-3.94zm9.908 0h-3.965a17.9 17.9 0 0 1-1.683 6.667A8.008 8.008 0 0 0 19.938 13zM4.062 11h3.965A17.9 17.9 0 0 1 9.71 4.333 8.008 8.008 0 0 0 4.062 11zm5.969 0h3.938A15.905 15.905 0 0 0 12 4.248 15.905 15.905 0 0 0 10.03 11zm4.259-6.667A17.9 17.9 0 0 1 15.973 11h3.965a8.008 8.008 0 0 0-5.648-6.667z"/>
        </g>
    </symbol>
    <symbol viewBox="0 0 24 24" id="ri-file-copy-2-line">
        <g>
            <path fill="none" d="M0 0h24v24H0z"/>
            <path d="M7 6V3a1 1 0 0 1 1-1h12a1 1 0 0 1 1 1v14a1 1 0 0 1-1 1h-3v3c0 .552-.45 1-1.007 1H4.007A1.001 1.001 0 0 1 3 21l.003-14c0-.552.45-1 1.006-1H7zM5.002 8L5 20h10V8H5.002zM9 6h8v10h2V4H9v2zm-2 5h6v2H7v-2zm0 4h6v2H7v-2z"/>
        </g>
    </symbol>
    <symbol viewBox="0 0 24 24" id="ri-bug-line">
        <g>
            <path fill="none" d="M0 0h24v24H0z"/>
            <path d="M13 19.9a5.002 5.002 0 0 0 4-4.9v-3a4.98 4.98 0 0 0-.415-2h-9.17A4.98 4.98 0 0 0 7 12v3a5.002 5.002 0 0 0 4 4.9V14h2v5.9zm-7.464-2.21A6.979 6.979 0 0 1 5 15H2v-2h3v-1c0-.643.087-1.265.249-1.856L3.036 8.866l1-1.732L6.056 8.3a7.01 7.01 0 0 1 .199-.3h11.49c.069.098.135.199.199.3l2.02-1.166 1 1.732-2.213 1.278c.162.59.249 1.213.249 1.856v1h3v2h-3c0 .953-.19 1.862-.536 2.69l2.5 1.444-1 1.732-2.526-1.458A6.986 6.986 0 0 1 12 22a6.986 6.986 0 0 1-5.438-2.592l-2.526 1.458-1-1.732 2.5-1.443zM8 6a4 4 0 1 1 8 0H8z"/>
        </g>
    </symbol>
    <symbol viewBox="0 0 24 24" id="ri-shopping-cart-line">
        <g>
            <path fill="none" d="M0 0h24v24H0z"/>
            <path d="M4 16V4H2V2h3a1 1 0 0 1 1 1v12h12.438l2-8H8V5h13.72a1 1 0 0 1 .97 1.243l-2.5 10a1 1 0 0 1-.97.757H5a1 1 0 0 1-1-1zm2 7a2 2 0 1 1 0-4 2 2 0 0 1 0 4zm12 0a2 2 0 1 1 0-4 2 2 0 0 1 0 4z"/>
        </g>
    </symbol>
    <symbol viewBox="0 0 24 24" id="ri-settings-3-line">
        <g>
            <path fill="none" d="M0 0h24v24H0z"/>
            <path d="M3.34 17a10.018 10.018 0 0 1-.978-2.326 3 3 0 0 0 .002-5.347A9.99 9.99 0 0 1 4.865 4.99a3 3 0 0 0 4.631-2.674 9.99 9.99 0 0 1 5.007.002 3 3 0 0 0 4.632 2.672c.579.59 1.093 1.261 1.525 2.01.433.749.757 1.53.978 2.326a3 3 0 0 0-.002 5.347 9.99 9.99 0 0 1-2.501 4.337 3 3 0 0 0-4.631 2.674 9.99 9.99 0 0 1-5.007-.002 3 3 0 0 0-4.632-2.672A10.018 10.018 0 0 1 3.34 17zm5.66.196a4.993 4.993 0 0 1 2.25 2.77c.499.047 1 .048 1.499.001A4.993 4.993 0 0 1 15 17.197a4.993 4.993 0 0 1 3.525-.565c.29-.408.54-.843.748-1.298A4.993 4.993 0 0 1 18 12c0-1.26.47-2.437 1.273-3.334a8.126 8.126 0 0 0-.75-1.298A4.993 4.993 0 0 1 15 6.804a4.993 4.993 0 0 1-2.25-2.77c-.499-.047-1-.048-1.499-.001A4.993 4.993 0 0 1 9 6.803a4.993 4.993 0 0 1-3.525.565 7.99 7.99 0 0 0-.748 1.298A4.993 4.993 0 0 1 6 12c0 1.26-.47 2.437-1.273 3.334a8.126 8.126 0 0 0 .75 1.298A4.993 4.993 0 0 1 9 17.196zM12 15a3 3 0 1 1 0-6 3 3 0 0 1 0 6zm0-2a1 1 0 1 0 0-2 1 1 0 0 0 0 2z"/>
        </g>
    </symbol>
    <symbol viewBox="0 0 24 24" id="ri-eye-line">
        <g>
            <path fill="none" d="M0 0h24v24H0z"/>
            <path d="M12 3c5.392 0 9.878 3.88 10.819 9-.94 5.12-5.427 9-10.819 9-5.392 0-9.878-3.88-10.819-9C2.121 6.88 6.608 3 12 3zm0 16a9.005 9.005 0 0 0 8.777-7 9.005 9.005 0 0 0-17.554 0A9.005 9.005 0 0 0 12 19zm0-2.5a4.5 4.5 0 1 1 0-9 4.5 4.5 0 0 1 0 9zm0-2a2.5 2.5 0 1 0 0-5 2.5 2.5 0 0 0 0 5z"/>
        </g>
    </symbol>
    <symbol viewBox="0 0 24 24" id="ri-arrow-up-line">
        <g>
            <path fill="none" d="M0 0h24v24H0z"/>
            <path d="M13 7.828V20h-2V7.828l-5.364 5.364-1.414-1.414L12 4l7.778 7.778-1.414 1.414L13 7.828z"/>
        </g>
    </symbol>
    <symbol viewBox="0 0 24 24" id="ri-arrow-down-line">
        <g>
            <path fill="none" d="M0 0h24v24H0z"/>
            <path d="M13 16.172l5.364-5.364 1.414 1.414L12 20l-7.778-7.778 1.414-1.414L11 16.172V4h2v12.172z"/>
        </g>
    </symbol>
    <symbol viewBox="0 0 24 24" id="ri-history-line">
        <g>
            <path fill="none" d="M0 0H24V24H0z"/>
            <path d="M12 2c5.523 0 10 4.477 10 10s-4.477 10-10 10S2 17.523 2 12h2c0 4.418 3.582 8 8 8s8-3.582 8-8-3.582-8-8-8C9.25 4 6.824 5.387 5.385 7.5H8v2H2v-6h2V6c1.824-2.43 4.729-4 8-4zm1 5v4.585l3.243 3.243-1.415 1.415L11 12.413V7h2z"/>
        </g>
    </symbol>
    <symbol viewBox="0 0 24 24" id="ri-error-warning-line">
        <g>
            <path fill="none" d="M0 0h24v24H0z"/>
            <path d="M12 22C6.477 22 2 17.523 2 12S6.477 2 12 2s10 4.477 10 10-4.477 10-10 10zm0-2a8 8 0 1 0 0-16 8 8 0 0 0 0 16zm-1-5h2v2h-2v-2zm0-8h2v6h-2V7z"/>
        </g>
    </symbol>
    <symbol viewBox="0 0 24 24" id="ri-facebook-box-line">
        <g>
            <path fill="none" d="M0 0h24v24H0z"/>
            <path d="M14 19h5V5H5v14h7v-5h-2v-2h2v-1.654c0-1.337.14-1.822.4-2.311A2.726 2.726 0 0 1 13.536 6.9c.382-.205.857-.328 1.687-.381.329-.021.755.005 1.278.08v1.9H16c-.917 0-1.296.043-1.522.164a.727.727 0 0 0-.314.314c-.12.226-.164.45-.164 1.368V12h2.5l-.5 2h-2v5zM4 3h16a1 1 0 0 1 1 1v16a1 1 0 0 1-1 1H4a1 1 0 0 1-1-1V4a1 1 0 0 1 1-1z"/>
        </g>
    </symbol>
    <symbol viewBox="0 0 24 24" id="ri-twitter-line">
        <g>
            <path fill="none" d="M0 0h24v24H0z"/>
            <path fill-rule="nonzero" d="M15.3 5.55a2.9 2.9 0 0 0-2.9 2.847l-.028 1.575a.6.6 0 0 1-.68.583l-1.561-.212c-2.054-.28-4.022-1.226-5.91-2.799-.598 3.31.57 5.603 3.383 7.372l1.747 1.098a.6.6 0 0 1 .034.993L7.793 18.17c.947.059 1.846.017 2.592-.131 4.718-.942 7.855-4.492 7.855-10.348 0-.478-1.012-2.141-2.94-2.141zm-4.9 2.81a4.9 4.9 0 0 1 8.385-3.355c.711-.005 1.316.175 2.669-.645-.335 1.64-.5 2.352-1.214 3.331 0 7.642-4.697 11.358-9.463 12.309-3.268.652-8.02-.419-9.382-1.841.694-.054 3.514-.357 5.144-1.55C5.16 15.7-.329 12.47 3.278 3.786c1.693 1.977 3.41 3.323 5.15 4.037 1.158.475 1.442.465 1.973.538z"/>
        </g>
    </symbol>
    <symbol viewBox="0 0 24 24" id="ri-linkedin-box-line">
        <g>
            <path fill="none" d="M0 0h24v24H0z"/>
            <path d="M4 3h16a1 1 0 0 1 1 1v16a1 1 0 0 1-1 1H4a1 1 0 0 1-1-1V4a1 1 0 0 1 1-1zm1 2v14h14V5H5zm2.5 4a1.5 1.5 0 1 1 0-3 1.5 1.5 0 0 1 0 3zm-1 1h2v7.5h-2V10zm5.5.43c.584-.565 1.266-.93 2-.93 2.071 0 3.5 1.679 3.5 3.75v4.25h-2v-4.25a1.75 1.75 0 0 0-3.5 0v4.25h-2V10h2v.43z"/>
        </g>
    </symbol>
    <symbol viewBox="0 0 24 24" id="ri-loader-5-line">
        <g>
            <path fill="none" d="M0 0h24v24H0z"/>
            <path d="M12 3a9 9 0 0 1 9 9h-2a7 7 0 0 0-7-7V3z"/>
        </g>
    </symbol>
    <symbol viewBox="0 0 24 24" id="ri-shopping-cart-add-line">
        <g>
            <path fill="none" d="M0 0h24v24H0z"/>
            <path d="M4,8h14v6h2V6l-2.7-3.6C17.1,2.1,16.8,2,16.5,2h-11C5.2,2,4.9,2.1,4.7,2.4L2,6v15c0,0.6,0.4,1,1,1h10v-2H4V8z M6,4h10 l1.5,2h-13L6,4z"/>
            <path d="M16,10h-2v2c0,1.7-1.3,3-3,3s-3-1.3-3-3v-2H6v2c0,2.8,2.2,5,5,5s5-2.2,5-5V10z" />
            <polygon points="20,19 20,16 18,16 18,19 15,19 15,21 18,21 18,24 20,24 20,21 23,21 23,19 "/>
        </g>
    </symbol>
    <symbol viewBox="0 0 24 24" id="ri-printer-line">
        <g>
            <path fill="none" d="M0 0h24v24H0z"/>
            <path d="M6 19H3a1 1 0 0 1-1-1V8a1 1 0 0 1 1-1h3V3a1 1 0 0 1 1-1h10a1 1 0 0 1 1 1v4h3a1 1 0 0 1 1 1v10a1 1 0 0 1-1 1h-3v2a1 1 0 0 1-1 1H7a1 1 0 0 1-1-1v-2zm0-2v-1a1 1 0 0 1 1-1h10a1 1 0 0 1 1 1v1h2V9H4v8h2zM8 4v3h8V4H8zm0 13v3h8v-3H8zm-3-7h3v2H5v-2z"/>
        </g>
    </symbol>
    <symbol viewBox="0 0 24 24" id="ri-shopping-bag-3-line">
        <g>
            <path fill="none" d="M0 0h24v24H0z"/>
            <path d="M6.5 2h11a1 1 0 0 1 .8.4L21 6v15a1 1 0 0 1-1 1H4a1 1 0 0 1-1-1V6l2.7-3.6a1 1 0 0 1 .8-.4zM19 8H5v12h14V8zm-.5-2L17 4H7L5.5 6h13zM9 10v2a3 3 0 0 0 6 0v-2h2v2a5 5 0 0 1-10 0v-2h2z"/>
        </g>
    </symbol>
    <symbol viewBox="0 0 24 24" id="ri-anticlockwise-2-line">
        <g>
            <path fill="none" d="M0 0h24v24H0z"/>
            <path fill-rule="nonzero" d="M13.414 6l1.829 1.828-1.415 1.415L9.586 5 13.828.757l1.415 1.415L13.414 4H16a5 5 0 0 1 5 5v4h-2V9a3 3 0 0 0-3-3h-2.586zM15 11v10a1 1 0 0 1-1 1H4a1 1 0 0 1-1-1V11a1 1 0 0 1 1-1h10a1 1 0 0 1 1 1zm-2 1H5v8h8v-8z"/>
        </g>
    </symbol>
    <symbol viewBox="0 0 24 24" id="ri-crop-line">
        <g>
            <path fill="none" d="M0 0h24v24H0z"/>
            <path d="M15 17v2H6a1 1 0 0 1-1-1V7H2V5h3V2h2v15h8zm2 5V7H9V5h9a1 1 0 0 1 1 1v11h3v2h-3v3h-2z"/>
        </g>
    </symbol>
    <symbol viewBox="0 0 24 24" id="ri-alert-line">
        <g>
            <path fill="none" d="M0 0h24v24H0z"/>
            <path fill-rule="nonzero" d="M12.866 3l9.526 16.5a1 1 0 0 1-.866 1.5H2.474a1 1 0 0 1-.866-1.5L11.134 3a1 1 0 0 1 1.732 0zm-8.66 16h15.588L12 5.5 4.206 19zM11 16h2v2h-2v-2zm0-7h2v5h-2V9z"/>
        </g>
    </symbol>
</svg>
