<svg width="76" height="90" viewBox="0 0 76 90" fill="none" xmlns="http://www.w3.org/2000/svg">
<path fill-rule="evenodd" clip-rule="evenodd" d="M38.003 7.85907L6.49402 27.8601V61.7283L38.003 81.9446L69.5956 61.7283V27.8601L38.003 7.85907ZM66.307 59.9717L62.7787 62.2771V49.2401L39.3108 64.6354V48.9454L42.8391 46.6509V57.0521L62.7787 44.1103V33.5541L66.307 31.2774V59.9717ZM34.7307 13.6718L37.9793 11.6395L65.2684 28.9189L61.6865 31.0543L43.0382 19.4821L52.5821 36.5934L49.9383 38.2458L23.3627 32.888L41.541 44.1758L37.9793 46.2952L10.7712 28.9189L14.1406 26.8816L45.6046 32.8881L34.7307 13.6718ZM9.78263 31.616L35.9387 49.0099V53.6633L13.4931 39.0273V45.9974L35.9387 60.3668V76.7088L9.78263 59.9709V55.6719L32.1721 70.0054V62.4977L9.78263 48.1861V31.616Z" fill="white"/>
<path d="M1.62634 64.3044V25.2453L37.9955 2.15915L74.4631 25.2464V64.3033L37.9955 87.639L1.62634 64.3044Z" stroke="white" stroke-width="3"/>
</svg>
